<svg width="125" height="30" viewBox="0 0 125 30" fill="none" xmlns="http://www.w3.org/2000/svg">
<path d="M50.0159 24L46.1999 16.632C47.8559 16.032 49.3199 14.544 49.3199 12.144C49.3199 9.288 47.2559 6.912 43.7759 6.912H37.0799V24H40.4159V17.184H42.8159L46.1519 24H50.0159ZM45.9839 12.144C45.9839 13.464 45.0239 14.4 43.5599 14.4H40.4159V9.888H43.5599C45.0239 9.888 45.9839 10.824 45.9839 12.144ZM63.199 24V15.768C63.199 12.84 61.375 11.352 57.871 11.352C55.783 11.352 54.583 11.736 53.359 13.08L55.351 15.024C55.999 14.28 56.551 13.992 57.751 13.992C59.407 13.992 60.079 14.592 60.079 15.96V16.584H57.127C54.223 16.584 52.855 18.216 52.855 20.208C52.855 21.312 53.215 22.32 53.887 23.016C54.631 23.76 55.663 24.12 57.079 24.12C58.519 24.12 59.311 23.76 60.151 22.92V24H63.199ZM60.079 19.392C60.079 20.16 59.959 20.664 59.623 20.976C59.071 21.504 58.519 21.576 57.655 21.576C56.431 21.576 55.855 21 55.855 20.136C55.855 19.248 56.479 18.72 57.607 18.72H60.079V19.392ZM77.7713 11.496H74.4833L71.9873 19.224L69.3953 11.496H66.1073L70.3793 23.112L69.8513 24.648C69.5393 25.56 69.1793 25.776 68.2913 25.776H67.5713V28.584H68.7953C69.8273 28.584 70.7633 28.344 71.4833 27.624C71.8673 27.24 72.1553 26.712 72.4193 26.016L77.7713 11.496ZM86.1267 24V21.36H84.9267C84.1347 21.36 83.8227 20.976 83.8227 20.232V6.912H80.7027V20.424C80.7027 22.2 81.7827 24 84.3507 24H86.1267ZM93.3314 7.968C93.3314 6.888 92.4674 6.024 91.3874 6.024C90.3074 6.024 89.4194 6.888 89.4194 7.968C89.4194 9.048 90.3074 9.936 91.3874 9.936C92.4674 9.936 93.3314 9.048 93.3314 7.968ZM92.9474 24V11.496H89.8274V24H92.9474ZM103.445 14.232V11.856H101.141V10.488C101.141 9.768 101.477 9.36 102.221 9.36H103.445V6.72H101.669C99.1248 6.72 98.0208 8.52 98.0208 10.296V11.856H96.7248V14.232H98.0208V24H101.141V14.232H103.445ZM116.937 18.72V17.328C116.937 13.896 114.969 11.352 111.489 11.352C108.249 11.352 106.041 13.656 106.041 17.736C106.041 22.8 108.873 24.144 111.825 24.144C114.081 24.144 115.305 23.448 116.577 22.176L114.681 20.328C113.889 21.12 113.217 21.504 111.849 21.504C110.097 21.504 109.113 20.328 109.113 18.72H116.937ZM113.865 16.584H109.113C109.137 16.032 109.209 15.696 109.401 15.24C109.737 14.496 110.433 13.944 111.489 13.944C112.545 13.944 113.241 14.496 113.577 15.24C113.769 15.696 113.841 16.032 113.865 16.584Z" fill="white"/>
<ellipse cx="91.1084" cy="8" rx="2.10835" ry="2" fill="#F3880C"/>
<circle cx="2.59774" cy="15.0504" r="1.83688" transform="rotate(-45 2.59774 15.0504)" fill="white"/>
<circle cx="7.3746" cy="10.2737" r="1.83688" transform="rotate(-45 7.3746 10.2737)" fill="#F3880C"/>
<circle cx="12.0504" cy="5.59773" r="1.83688" transform="rotate(-45 12.0504 5.59773)" fill="#4C84FF"/>
<circle cx="7.27377" cy="19.7263" r="1.83688" transform="rotate(-45 7.27377 19.7263)" fill="#F3880C"/>
<circle cx="12.0504" cy="14.9496" r="1.83688" transform="rotate(-45 12.0504 14.9496)" fill="#F3880C"/>
<circle cx="16.7264" cy="10.2737" r="1.83688" transform="rotate(-45 16.7264 10.2737)" fill="#4C84FF"/>
<circle cx="11.9495" cy="24.4022" r="1.83688" transform="rotate(-45 11.9495 24.4022)" fill="#4C84FF"/>
<circle cx="16.7262" cy="19.6255" r="1.83688" transform="rotate(-45 16.7262 19.6255)" fill="#4C84FF"/>
<circle cx="21.4022" cy="14.9496" r="1.83688" transform="rotate(-45 21.4022 14.9496)" fill="#4C84FF"/>
</svg>
