<svg width="27" height="27" viewBox="0 0 27 27" fill="none" xmlns="http://www.w3.org/2000/svg">
<path d="M15.75 2.25H6.75C6.15326 2.25 5.58097 2.48705 5.15901 2.90901C4.73705 3.33097 4.5 3.90326 4.5 4.5V22.5C4.5 23.0967 4.73705 23.669 5.15901 24.091C5.58097 24.5129 6.15326 24.75 6.75 24.75H20.25C20.8467 24.75 21.419 24.5129 21.841 24.091C22.2629 23.669 22.5 23.0967 22.5 22.5V9L15.75 2.25Z" stroke="#4C84FF" stroke-width="2" stroke-linecap="round" stroke-linejoin="round"/>
<path d="M15.75 2.25V9H22.5" stroke="#4C84FF" stroke-width="2" stroke-linecap="round" stroke-linejoin="round"/>
<path d="M18 14.625H9" stroke="#4C84FF" stroke-width="2" stroke-linecap="round" stroke-linejoin="round"/>
<path d="M18 19.125H9" stroke="#4C84FF" stroke-width="2" stroke-linecap="round" stroke-linejoin="round"/>
<path d="M11.25 10.125H10.125H9" stroke="#4C84FF" stroke-width="2" stroke-linecap="round" stroke-linejoin="round"/>
</svg>
