<svg width="29" height="28" viewBox="0 0 29 28" fill="none" xmlns="http://www.w3.org/2000/svg">
<path fill-rule="evenodd" clip-rule="evenodd" d="M13.7813 5.87633C13.7813 8.04319 12.0559 9.75266 9.9853 9.75266C7.91466 9.75266 6.18926 8.04319 6.18926 5.87633C6.18926 3.70946 7.91466 2 9.9853 2C12.0559 2 13.7813 3.70946 13.7813 5.87633ZM15.7813 5.87633C15.7813 9.12173 13.1864 11.7527 9.9853 11.7527C6.78424 11.7527 4.18926 9.12173 4.18926 5.87633C4.18926 2.63092 6.78424 0 9.9853 0C13.1864 0 15.7813 2.63092 15.7813 5.87633ZM26.3196 20.8341C26.3196 21.932 26.0226 22.9596 25.5057 23.8388L28.5562 26.4893L27.2445 27.9991L24.2137 25.3658C23.2113 26.2057 21.9256 26.7104 20.5236 26.7104C17.3225 26.7104 14.7275 24.0795 14.7275 20.8341C14.7275 17.5887 17.3225 14.9578 20.5236 14.9578C23.7247 14.9578 26.3196 17.5887 26.3196 20.8341ZM20.5236 24.7104C22.5942 24.7104 24.3196 23.001 24.3196 20.8341C24.3196 18.6672 22.5942 16.9578 20.5236 16.9578C18.4529 16.9578 16.7275 18.6672 16.7275 20.8341C16.7275 23.001 18.4529 24.7104 20.5236 24.7104ZM12.3602 11.8573L11.7338 11.6841L11.3211 12.1861L9.54872 14.3425L8.18711 12.2718L7.92266 11.8696L7.44334 11.8254L7.35156 12.8212C7.44334 11.8254 7.44301 11.8254 7.44265 11.8253L7.44183 11.8253L7.43978 11.8251L7.43408 11.8246L7.41643 11.8231C7.40192 11.8219 7.38198 11.8203 7.35696 11.8186C7.30694 11.815 7.23651 11.8106 7.14855 11.8066C6.9729 11.7985 6.72577 11.7917 6.43056 11.7962C5.84589 11.8052 5.04564 11.8588 4.22896 12.047C3.42323 12.2327 2.51951 12.5677 1.80232 13.1956C1.04952 13.8548 0.55542 14.7935 0.55542 16.0264V16.0483V16.0701V16.0919V16.1135V16.1352V16.1568V16.1783V16.1997V16.2211V16.2425V16.2637V16.2849V16.3061V16.3272V16.3482V16.3692V16.3901V16.411V16.4317V16.4525V16.4732V16.4938V16.5143V16.5348V16.5553V16.5756V16.5959V16.6162V16.6364V16.6565V16.6766V16.6966V16.7166V16.7365V16.7563V16.7761V16.7959V16.8155V16.8351V16.8547V16.8742V16.8936V16.913V16.9323V16.9516V16.9708V16.9899V17.009V17.028V17.047V17.0659V17.0848V17.1036V17.1223V17.141V17.1596V17.1782V17.1967V17.2152V17.2336V17.2519V17.2702V17.2885V17.3066V17.3247V17.3428V17.3608V17.3788V17.3966V17.4145V17.4323V17.45V17.4676V17.4853V17.5028V17.5203V17.5378V17.5551V17.5725V17.5898V17.607V17.6241V17.6413V17.6583V17.6753V17.6923V17.7091V17.726V17.7428V17.7595V17.7762V17.7928V17.8093V17.8259V17.8423V17.8587V17.875V17.8913V17.9076V17.9238V17.9399V17.956V17.972V17.9879V18.0039V18.0197V18.0355V18.0513V18.067V18.0826V18.0982V18.1138V18.1292V18.1447V18.1601V18.1754V18.1907V18.2059V18.2211V18.2362V18.2512V18.2663V18.2812V18.2961V18.311V18.3258V18.3405V18.3552V18.3699V18.3845V18.399V18.4135V18.4279V18.4423V18.4567V18.4709V18.4852V18.4994V18.5135V18.5276V18.5416V18.5556V18.5695V18.5834V18.5972V18.611V18.6247V18.6384V18.652V18.6656V18.6791V18.6926V18.706V18.7194V18.7327V18.7459V18.7592V18.7723V18.7855V18.7985V18.8116V18.8245V18.8374V18.8503V18.8631V18.8759V18.8886V18.9013V18.9139V18.9265V18.9391V18.9515V18.964V18.9763V18.9887V19.001V19.0132V19.0254V19.0375V19.0496V19.0617V19.0737V19.0856V19.0975V19.1094V19.1212V19.1329V19.1446V19.1563V19.1679V19.1795V19.191V19.2024V19.2139V19.2252V19.2366V19.2479V19.2591V19.2703V19.2814V19.2925V19.3036V19.3146V19.3255V19.3364V19.3473V19.3581V19.3689V19.3796V19.3903V19.4009V19.4115V19.422V19.4325V19.4429V19.4533V19.4637V19.474V19.4843V19.4945V19.5047V19.5148V19.5249V19.5349V19.5449V19.5548V19.5647V19.5746V19.5844V19.5942V19.6039V19.6136V19.6232V19.6328V19.6423V19.6518V19.6613V19.6707V19.6801V19.6894V19.6987V19.7079V19.7171V19.7263V19.7354V19.7444V19.7534V19.7624V19.7713V19.7802V19.7891V19.7979V19.8066V19.8154V19.824V19.8327V19.8412V19.8498V19.8583V19.8667V19.8752V19.8835V19.8919V19.9002V19.9084V19.9166V19.9248V19.9329V19.941V19.949V19.957V19.965V19.9729V19.9807V19.9886V19.9963V20.0041V20.0118V20.0195V20.0271V20.0347V20.0422V20.0497V20.0572V20.0646V20.072V20.0793V20.0866V20.0938V20.1011V20.1082V20.1154V20.1225V20.1295V20.1365V20.1435V20.1504V20.1573V20.1642V20.171V20.1778V20.1845V20.1912V20.1979V20.2045V20.211V20.2176V20.2241V20.2305V20.237V20.2433V20.2497V20.256V20.2623V20.2685V20.2747V20.2808V20.2869V20.293V20.299V20.305V20.311V20.3169V20.3228V20.3286V20.3345V20.3402V20.346V20.3516V20.3573V20.3629V20.3685V20.374V20.3796V20.385V20.3905V20.3959V20.4012V20.4065V20.4118V20.4171V20.4223V20.4274V20.4326V20.4377V20.4428V20.4478V20.4528V20.4577V20.4626V20.4675V20.4724V20.4772V20.482V20.4867V20.4914V20.4961V20.5007V20.5053V20.5099V20.5144V20.5189V20.5233V20.5278V20.5322V20.5365V20.5408V20.5451V20.5494V20.5536V20.5577V20.5619V20.566V20.5701V20.5741V20.5781V20.5821V20.586V20.5899V20.5938V20.5976V20.6014V20.6052V20.6089V20.6126V20.6163V20.6199V20.6235V20.6271V20.6306V20.6341V20.6376V20.641V20.6444V20.6478V20.6511V20.6544V20.6577V20.6609V20.6641V20.6673V20.6705V20.6736V20.6766V20.6797V20.6827V20.6857V20.6886V20.6915V20.6944V20.6973V20.7001V20.7029V20.7056V20.7084V20.7111V20.7137V20.7163V20.7189V20.7215V20.7241V20.7266V20.729V20.7315V20.7339V20.7363V20.7386V20.7409V20.7432V20.7455V20.7477V20.7499V20.7521V20.7542V20.7564V20.7584V20.7605V20.7625V20.7645V20.7665V20.7684V20.7703V20.7722V20.774V20.7758V20.7776V20.7794V20.7811V20.7828V20.7845V20.7861V20.7877V20.7893V20.7908V20.7924V20.7939V20.7953V20.7968V20.7982V20.7996V20.8009V20.8022V20.8035V20.8048V20.8061V20.8073V20.8085V20.8096V20.8107V20.8118V20.8129V20.814V20.815V20.816V20.817V20.8179V20.8188V20.8197V20.8206V20.8214V20.8222V20.823V20.8237V20.8245V20.8252V20.8258V20.8265V20.8271V20.8277V20.8283V20.8288V20.8293V20.8298V20.8303V20.8307V20.8311V20.8315V20.8319V20.8322V20.8325V20.8328V20.8331V20.8333V20.8335V20.8337V20.8339V20.834V20.8341V20.8342V20.8343V20.8343L1.55542 20.8343L2.55542 20.8343V20.8343V20.8342V20.8341V20.834V20.8339V20.8337V20.8335V20.8333V20.8331V20.8328V20.8325V20.8322V20.8319V20.8315V20.8311V20.8307V20.8303V20.8298V20.8293V20.8288V20.8283V20.8277V20.8271V20.8265V20.8258V20.8252V20.8245V20.8237V20.823V20.8222V20.8214V20.8206V20.8197V20.8188V20.8179V20.817V20.816V20.815V20.814V20.8129V20.8118V20.8107V20.8096V20.8085V20.8073V20.8061V20.8048V20.8035V20.8022V20.8009V20.7996V20.7982V20.7968V20.7953V20.7939V20.7924V20.7908V20.7893V20.7877V20.7861V20.7845V20.7828V20.7811V20.7794V20.7776V20.7758V20.774V20.7722V20.7703V20.7684V20.7665V20.7645V20.7625V20.7605V20.7584V20.7564V20.7542V20.7521V20.7499V20.7477V20.7455V20.7432V20.7409V20.7386V20.7363V20.7339V20.7315V20.729V20.7266V20.7241V20.7215V20.7189V20.7163V20.7137V20.7111V20.7084V20.7056V20.7029V20.7001V20.6973V20.6944V20.6915V20.6886V20.6857V20.6827V20.6797V20.6766V20.6736V20.6705V20.6673V20.6641V20.6609V20.6577V20.6544V20.6511V20.6478V20.6444V20.641V20.6376V20.6341V20.6306V20.6271V20.6235V20.6199V20.6163V20.6126V20.6089V20.6052V20.6014V20.5976V20.5938V20.5899V20.586V20.5821V20.5781V20.5741V20.5701V20.566V20.5619V20.5577V20.5536V20.5494V20.5451V20.5408V20.5365V20.5322V20.5278V20.5233V20.5189V20.5144V20.5099V20.5053V20.5007V20.4961V20.4914V20.4867V20.482V20.4772V20.4724V20.4675V20.4626V20.4577V20.4528V20.4478V20.4428V20.4377V20.4326V20.4274V20.4223V20.4171V20.4118V20.4065V20.4012V20.3959V20.3905V20.385V20.3796V20.374V20.3685V20.3629V20.3573V20.3516V20.346V20.3402V20.3345V20.3286V20.3228V20.3169V20.311V20.305V20.299V20.293V20.2869V20.2808V20.2747V20.2685V20.2623V20.256V20.2497V20.2433V20.237V20.2305V20.2241V20.2176V20.211V20.2045V20.1979V20.1912V20.1845V20.1778V20.171V20.1642V20.1573V20.1504V20.1435V20.1365V20.1295V20.1225V20.1154V20.1082V20.1011V20.0938V20.0866V20.0793V20.072V20.0646V20.0572V20.0497V20.0422V20.0347V20.0271V20.0195V20.0118V20.0041V19.9963V19.9886V19.9807V19.9729V19.965V19.957V19.949V19.941V19.9329V19.9248V19.9166V19.9084V19.9002V19.8919V19.8835V19.8752V19.8667V19.8583V19.8498V19.8412V19.8327V19.824V19.8154V19.8066V19.7979V19.7891V19.7802V19.7713V19.7624V19.7534V19.7444V19.7354V19.7263V19.7171V19.7079V19.6987V19.6894V19.6801V19.6707V19.6613V19.6518V19.6423V19.6328V19.6232V19.6136V19.6039V19.5942V19.5844V19.5746V19.5647V19.5548V19.5449V19.5349V19.5249V19.5148V19.5047V19.4945V19.4843V19.474V19.4637V19.4533V19.4429V19.4325V19.422V19.4115V19.4009V19.3903V19.3796V19.3689V19.3581V19.3473V19.3364V19.3255V19.3146V19.3036V19.2925V19.2814V19.2703V19.2591V19.2479V19.2366V19.2252V19.2139V19.2024V19.191V19.1795V19.1679V19.1563V19.1446V19.1329V19.1212V19.1094V19.0975V19.0856V19.0737V19.0617V19.0496V19.0375V19.0254V19.0132V19.001V18.9887V18.9763V18.964V18.9515V18.9391V18.9265V18.9139V18.9013V18.8886V18.8759V18.8631V18.8503V18.8374V18.8245V18.8116V18.7985V18.7855V18.7723V18.7592V18.7459V18.7327V18.7194V18.706V18.6926V18.6791V18.6656V18.652V18.6384V18.6247V18.611V18.5972V18.5834V18.5695V18.5556V18.5416V18.5276V18.5135V18.4994V18.4852V18.4709V18.4567V18.4423V18.4279V18.4135V18.399V18.3845V18.3699V18.3552V18.3405V18.3258V18.311V18.2961V18.2812V18.2663V18.2512V18.2362V18.2211V18.2059V18.1907V18.1754V18.1601V18.1447V18.1292V18.1138V18.0982V18.0826V18.067V18.0513V18.0355V18.0197V18.0039V17.9879V17.972V17.956V17.9399V17.9238V17.9076V17.8913V17.875V17.8587V17.8423V17.8259V17.8093V17.7928V17.7762V17.7595V17.7428V17.726V17.7091V17.6923V17.6753V17.6583V17.6413V17.6241V17.607V17.5898V17.5725V17.5551V17.5378V17.5203V17.5028V17.4853V17.4676V17.45V17.4323V17.4145V17.3966V17.3788V17.3608V17.3428V17.3247V17.3066V17.2885V17.2702V17.2519V17.2336V17.2152V17.1967V17.1782V17.1596V17.141V17.1223V17.1036V17.0848V17.0659V17.047V17.028V17.009V16.9899V16.9708V16.9516V16.9323V16.913V16.8936V16.8742V16.8547V16.8351V16.8155V16.7959V16.7761V16.7563V16.7365V16.7166V16.6966V16.6766V16.6565V16.6364V16.6162V16.5959V16.5756V16.5553V16.5348V16.5143V16.4938V16.4732V16.4525V16.4317V16.411V16.3901V16.3692V16.3482V16.3272V16.3061V16.2849V16.2637V16.2425V16.2211V16.1997V16.1783V16.1568V16.1352V16.1135V16.0919V16.0701V16.0483V16.0264C2.55542 15.3895 2.78584 14.9928 3.11982 14.7003C3.4894 14.3767 4.03471 14.1442 4.67801 13.9959C5.31037 13.8502 5.95916 13.8037 6.46126 13.796C6.58411 13.7941 6.69656 13.7946 6.79593 13.7963L8.38365 16.2109L6.90746 22.1975L6.77349 22.7408L7.16642 23.1392L9.27407 25.276L10.0694 26.0824L10.7711 25.1932L12.8787 22.5222L13.2114 22.1006L13.0436 21.5904L11.9898 18.3851L10.0899 19.0098L10.976 21.7049L9.90261 23.0652L8.98325 22.1331L10.3757 16.4861L12.4535 13.9582L17.6232 15.3876L18.1562 13.4599L12.3602 11.8573Z" fill="#4C84FF"/>
</svg>
