<?xml version="1.0" encoding="utf-8"?>
<!-- Generator: Adobe Illustrator 22.0.1, SVG Export Plug-In . SVG Version: 6.00 Build 0)  -->
<svg version="1.1" id="no-test" xmlns="http://www.w3.org/2000/svg" xmlns:xlink="http://www.w3.org/1999/xlink" x="0px" y="0px"
	 viewBox="0 0 120 120" style="enable-background:new 0 0 120 120;" xml:space="preserve">
<style type="text/css">
	.st0{fill:#F1F2F5;}
	.st1{fill:#FFFFFF;}
	.st2{fill:#7B7C8E;}
	.st3{fill:#5FC8FF;}
	.st4{fill:#50D2A0;}
</style>
<g id="background">
	<circle class="st0" cx="60" cy="60" r="40"/>
</g>
<path id="tube_2_body" class="st1" d="M94.9,50.5H83.2l0.1,16.2c0,1.3-0.7,2.6-1.9,3.3c-5.2,3-8.6,9.2-7.9,15.7
	c0.8,6.1,4.6,11.3,11.6,13.2c2,0.6,3.8,0.5,5.9,0.4c6.3-0.3,13.6-5.2,13.8-15.6c0-5.5-3.7-10.8-8.1-13.7c-1.1-0.7-1.7-1.9-1.7-3.2
	L94.9,50.5L94.9,50.5L94.9,50.5z"/>
<path id="tube_2" class="st2" d="M106.8,70.4l-2.8-2.8c-0.6-0.6-1.5-0.6-2.1,0c-0.5,0.5-0.6,1.2-0.3,1.7l-2.4,2.4
	c-0.7-0.6-1.5-1.2-2.2-1.7c-1.1-0.7-1.8-2-1.8-3.3L95.1,54c1.1,0,2-0.9,2-2s-0.9-2-2-2l0,0l0,0H83c-1.1,0-2,0.9-2,2s0.9,2,2,2l0,0
	l0.1,12.5c0,1.4-0.7,2.7-1.9,3.4c-5.3,3.1-8.8,9.4-8.1,16.1c0.8,6.2,4.7,11.5,11.9,13.5c2.2,0.9,7.3,0.8,9.6-0.2
	c5.2-2.1,10.3-6.6,10.5-15.3c0-3-1.1-5.9-2.7-8.5l2.7-2.7c0.6,0.3,1.2,0.2,1.7-0.3C107.3,72,107.3,71,106.8,70.4z M91,96.9
	c-1.4,0.1-3.4,0.1-5-0.3c-5.6-1.3-9.5-6.1-9.9-11c-0.6-5.3,2.1-10.6,6.6-13.2c2.1-1.2,3.4-3.5,3.4-6L86,54h6l0.1,12.7
	c0,2.4,1.2,4.5,3.1,5.8c3.4,2.2,6.9,6.7,6.9,11.5C102.1,91.4,97,96.5,91,96.9z"/>
<path id="tube_1_body" class="st1" d="M48.9,18.5H26.2v26.4c0,3.9-0.8,7.8-2.6,11.2L6.2,88.4c-2.3,5.2,1.4,11,7.1,11h47.6
	c5.7,0,9.4-5.9,7.1-11L51.3,55.9c-1.7-3.3-2.4-7-2.4-10.8L48.9,18.5L48.9,18.5z"/>
<path id="tube_1" class="st2" d="M68.3,88.8L51.5,55.9C49.7,52.5,49,48.8,49,45V23h0.5c1.4,0,2.5-1.1,2.5-2.5S50.9,18,49.5,18h-24
	c-1.4,0-2.5,1.1-2.5,2.5s1.1,2.5,2.5,2.5H26v21.7c0,4-0.8,7.9-2.7,11.4L5.7,88.8C3.4,94.1,7.2,100,12.9,100h48.2
	C66.9,100,70.7,94.1,68.3,88.8z M65.2,94.8c-0.9,1.4-2.4,2.2-4.1,2.2H12.9c-1.7,0-3.2-0.8-4.1-2.2c-0.9-1.4-1-3.1-0.4-4.6L26,57.5
	c0.1-0.2,0.2-0.3,0.2-0.5h4.4c0.8,0,1.5-0.7,1.5-1.5S31.5,54,30.7,54h-3.1c0.6-1.6,1-3.3,1.2-5h1.7c0.8,0,1.5-0.7,1.5-1.5
	S31.3,46,30.5,46H29c0-0.3,0-0.7,0-1v-4h3.4c0.8,0,1.5-0.7,1.5-1.5S33.3,38,32.5,38H29v-5h1.5c0.8,0,1.5-0.7,1.5-1.5
	S31.3,30,30.5,30H29v-7h17v22c0,4.2,0.8,8.5,2.8,12.3l16.8,32.9C66.3,91.7,66.2,93.3,65.2,94.8z"/>
<path id="liquid" class="st3" d="M56.8,73H17.7L8.4,90.2c-0.7,1.5-0.5,3.2,0.4,4.6s2.4,2.2,4.1,2.2h48.2c1.7,0,3.2-0.8,4.1-2.2
	c0.9-1.4,1-3.1,0.3-4.6L56.8,73z"/>
<path id="liquid_1_" class="st4" d="M76.1,83c-0.1,0.9-0.1,1.8,0,2.7c0.7,6.1,5.9,11,12.2,11.3c0.1,0,0.2,0,0.4,0c0.3,0,0.7,0,1,0
	h0.4c6.8,0,12-5.6,12-13c0-0.3,0-0.7-0.1-1H76.1z"/>
</svg>
