<svg width="112" height="72" viewBox="0 0 112 72" fill="none" xmlns="http://www.w3.org/2000/svg">
<path fill-rule="evenodd" clip-rule="evenodd" d="M61 0H49.9814C48.8877 0 48 0.887451 48 1.9812V14C48 15.0938 48.8877 15.9812 49.9814 15.9812H61.8623C62.9561 15.9812 64 15.0938 64 14V3L61 0ZM62 13.9187C61.9629 13.95 61.9033 13.9812 61.8623 13.9812H50V2H58V6H62V13.9187ZM60 2V4H62L60 2Z" fill="#0B5FFF"/>
<rect y="40" width="112" height="32" rx="4" fill="#F0F5FF"/>
<path fill-rule="evenodd" clip-rule="evenodd" d="M61 48H49.9814C48.8877 48 48 48.8875 48 49.9812V62C48 63.0938 48.8877 63.9812 49.9814 63.9812H61.8623C62.9561 63.9812 64 63.0938 64 62V51L61 48ZM62 61.9187C61.9629 61.95 61.9033 61.9812 61.8623 61.9812H50V50H58V54H62V61.9187ZM60 50V52H62L60 50Z" fill="#6B6C7E"/>
<path fill-rule="evenodd" clip-rule="evenodd" d="M21 48H9.98145C8.8877 48 8 48.8875 8 49.9812V62C8 63.0938 8.8877 63.9812 9.98145 63.9812H21.8623C22.9561 63.9812 24 63.0938 24 62V51L21 48ZM22 61.9187C21.9629 61.95 21.9033 61.9812 21.8623 61.9812H10V50H18V54H22V61.9187ZM20 50V52H22L20 50Z" fill="#6B6C7E"/>
<path fill-rule="evenodd" clip-rule="evenodd" d="M101 48H89.9814C88.8877 48 88 48.8875 88 49.9812V62C88 63.0938 88.8877 63.9812 89.9814 63.9812H101.862C102.956 63.9812 104 63.0938 104 62V51L101 48ZM102 61.9187C101.963 61.95 101.903 61.9812 101.862 61.9812H90V50H98V54H102V61.9187ZM100 50V52H102L100 50Z" fill="#6B6C7E"/>
<line x1="55.5" y1="20" x2="55.5" y2="44" stroke="#CDCED9"/>
<line x1="16.5" y1="32" x2="16.5" y2="44" stroke="#CDCED9"/>
<line x1="96.5" y1="32" x2="96.5" y2="44" stroke="#CDCED9"/>
<line x1="96" y1="32.5" x2="16" y2="32.5" stroke="#CDCED9"/>
</svg>
