<svg width="112" height="72" viewBox="0 0 112 72" fill="none" xmlns="http://www.w3.org/2000/svg">
<path fill-rule="evenodd" clip-rule="evenodd" d="M62 56H50.9814C49.8877 56 49 56.8875 49 57.9812V70C49 71.0938 49.8877 71.9812 50.9814 71.9812H62.8623C63.9561 71.9812 65 71.0938 65 70V59L62 56ZM63 69.9187C62.9629 69.95 62.9033 69.9812 62.8623 69.9812H51V58H59V62H63V69.9187ZM61 58V60H63L61 58Z" fill="#0B5FFF"/>
<rect width="112" height="32" rx="4" fill="#F0F5FF"/>
<path fill-rule="evenodd" clip-rule="evenodd" d="M62 8H50.9814C49.8877 8 49 8.88745 49 9.9812V22C49 23.0938 49.8877 23.9812 50.9814 23.9812H62.8623C63.9561 23.9812 65 23.0938 65 22V11L62 8ZM63 21.9187C62.9629 21.95 62.9033 21.9812 62.8623 21.9812H51V10H59V14H63V21.9187ZM61 10V12H63L61 10Z" fill="#6B6C7E"/>
<path fill-rule="evenodd" clip-rule="evenodd" d="M22 8H10.9814C9.8877 8 9 8.88745 9 9.9812V22C9 23.0938 9.8877 23.9812 10.9814 23.9812H22.8623C23.9561 23.9812 25 23.0938 25 22V11L22 8ZM23 21.9187C22.9629 21.95 22.9033 21.9812 22.8623 21.9812H11V10H19V14H23V21.9187ZM21 10V12H23L21 10Z" fill="#6B6C7E"/>
<path fill-rule="evenodd" clip-rule="evenodd" d="M102 8H90.9814C89.8877 8 89 8.88745 89 9.9812V22C89 23.0938 89.8877 23.9812 90.9814 23.9812H102.862C103.956 23.9812 105 23.0938 105 22V11L102 8ZM103 21.9187C102.963 21.95 102.903 21.9812 102.862 21.9812H91V10H99V14H103V21.9187ZM101 10V12H103L101 10Z" fill="#6B6C7E"/>
<line x1="56.5" y1="28" x2="56.5" y2="52" stroke="#CDCED9"/>
</svg>
