<svg width="112" height="32" viewBox="0 0 112 32" fill="none" xmlns="http://www.w3.org/2000/svg">
<rect width="112" height="32" rx="4" fill="#F0F5FF"/>
<path fill-rule="evenodd" clip-rule="evenodd" d="M61 8H49.9814C48.8877 8 48 8.88745 48 9.9812V22C48 23.0938 48.8877 23.9812 49.9814 23.9812H61.8623C62.9561 23.9812 64 23.0938 64 22V11L61 8ZM62 21.9187C61.9629 21.95 61.9033 21.9812 61.8623 21.9812H50V10H58V14H62V21.9187ZM60 10V12H62L60 10Z" fill="#0B5FFF"/>
<path fill-rule="evenodd" clip-rule="evenodd" d="M21 8H9.98145C8.8877 8 8 8.88745 8 9.9812V22C8 23.0938 8.8877 23.9812 9.98145 23.9812H21.8623C22.9561 23.9812 24 23.0938 24 22V11L21 8ZM22 21.9187C21.9629 21.95 21.9033 21.9812 21.8623 21.9812H10V10H18V14H22V21.9187ZM20 10V12H22L20 10Z" fill="#6B6C7E"/>
<path fill-rule="evenodd" clip-rule="evenodd" d="M101 8H89.9814C88.8877 8 88 8.88745 88 9.9812V22C88 23.0938 88.8877 23.9812 89.9814 23.9812H101.862C102.956 23.9812 104 23.0938 104 22V11L101 8ZM102 21.9187C101.963 21.95 101.903 21.9812 101.862 21.9812H90V10H98V14H102V21.9187ZM100 10V12H102L100 10Z" fill="#6B6C7E"/>
</svg>
