<?xml version="1.0" encoding="utf-8"?>
<!-- Generator: Adobe Illustrator 16.0.4, SVG Export Plug-In . SVG Version: 6.00 Build 0)  -->
<!DOCTYPE svg PUBLIC "-//W3C//DTD SVG 1.1//EN" "http://www.w3.org/Graphics/SVG/1.1/DTD/svg11.dtd">
<svg version="1.1" id="Layer_1" xmlns="http://www.w3.org/2000/svg" xmlns:xlink="http://www.w3.org/1999/xlink" x="0px" y="0px"
	 width="115px" height="139px" viewBox="0 0 115 139" enable-background="new 0 0 115 139" xml:space="preserve">
<g>
	<g>
		<polygon fill="#1A75B8" points="57.498,133.957 2.136,101.99 2.89,100.684 57.498,132.217 81.946,118.1 56.978,99.908 
			31.583,85.088 32.342,83.783 57.835,98.666 84.709,118.246 		"/>
	</g>
	<g>
		<rect x="31.208" y="54.831" fill="#008AB5" width="1.508" height="29.604"/>
	</g>
	<g>
		<rect x="1.76" y="37.849" fill="#008AB5" width="1.508" height="62.458"/>
	</g>
	<g>
		
			<rect x="44.042" y="32.497" transform="matrix(0.5016 0.8651 -0.8651 0.5016 63.3111 -15.1414)" fill="#009CB6" width="1.507" height="29.752"/>
	</g>
	<g>
		<path fill="none" stroke="#C4DDF2" stroke-width="2.0212" stroke-miterlimit="10" d="M81.037,101.596"/>
	</g>
	<g>
		<g>
			
				<rect x="31.041" y="28.606" transform="matrix(0.9785 0.2062 -0.2062 0.9785 7.6069 -14.2596)" fill="#009CB6" width="82.329" height="1.508"/>
		</g>
		<g>
			
				<rect x="42.904" y="29.641" transform="matrix(0.4695 0.8829 -0.8829 0.4695 64.192 -46.0455)" fill="#1A75B8" width="55.019" height="1.509"/>
		</g>
		<g>
			
				<rect x="43.958" y="2.954" transform="matrix(0.8856 0.4644 -0.4644 0.8856 19.2611 -17.2781)" fill="#009CB6" width="1.508" height="55.029"/>
		</g>
		<g>
			
				<rect x="67.871" y="14.19" transform="matrix(0.6929 0.721 -0.721 0.6929 42.2649 -40.4572)" fill="#00B6B7" width="1.509" height="30.394"/>
		</g>
		<g>
			
				<rect x="26.047" y="19.963" transform="matrix(0.939 0.3439 -0.3439 0.939 13.6329 -7.0881)" fill="#008AB5" width="1.508" height="29.857"/>
		</g>
		<g>
			
				<rect x="11.341" y="47.216" transform="matrix(0.9397 0.342 -0.342 0.9397 26.4182 0.393)" fill="#008AB5" width="1.508" height="55.819"/>
		</g>
		<g>
			
				<rect x="16.465" y="45.759" transform="matrix(0.4485 0.8938 -0.8938 0.4485 65.1021 18.9205)" fill="#008AB5" width="1.508" height="32.911"/>
		</g>
		<g>
			
				<rect x="-25.431" y="78.886" transform="matrix(0.3821 0.9241 -0.9241 0.3821 85.8279 30.9209)" fill="#008AB5" width="90.446" height="1.508"/>
		</g>
		<g>
			
				<rect x="0.423" y="77.484" transform="matrix(0.8895 0.457 -0.457 0.8895 37.891 -0.1851)" fill="#1A75B8" width="37.81" height="1.507"/>
		</g>
		<g>
			
				<rect x="16.484" y="75.909" transform="matrix(0.4975 0.8675 -0.8675 0.4975 89.238 31.7226)" fill="#1A75B8" width="1.509" height="33.955"/>
		</g>
		<g>
			
				<rect x="57.221" y="114.729" transform="matrix(0.979 0.2039 -0.2039 0.979 25.0319 -11.933)" fill="#1A75B8" width="26.384" height="1.508"/>
		</g>
		<g>
			
				<rect x="1.922" y="106.311" transform="matrix(0.979 0.204 -0.204 0.979 22.4668 -3.8692)" fill="#1A75B8" width="56.166" height="1.508"/>
		</g>
		<g>
			
				<rect x="69.543" y="81.273" transform="matrix(0.8854 0.4649 -0.4649 0.8854 58.6165 -20.2127)" fill="#005B96" width="1.508" height="54.976"/>
		</g>
		<g>
			<path fill="none" stroke="#1A75B8" stroke-width="2.0212" stroke-miterlimit="10" d="M83.328,118.174"/>
		</g>
		<g>
			<path fill="none" stroke="#1A75B8" stroke-width="2.0212" stroke-miterlimit="10" d="M57.498,99.275"/>
		</g>
		<g>
			
				<rect x="57.478" y="99.554" transform="matrix(0.9993 0.0375 -0.0375 0.9993 3.8194 -3.1151)" fill="#1A75B8" width="55.027" height="1.507"/>
		</g>
		<g>
			
				<rect x="46.53" y="95.287" transform="matrix(0.7347 0.6784 -0.6784 0.7347 87.4074 -2.8004)" fill="#1A75B8" width="1.509" height="30.134"/>
		</g>
	</g>
	<circle fill="#008AB5" cx="2.513" cy="69.596" r="2.513"/>
	<circle fill="#1A75B8" cx="2.513" cy="100.307" r="2.513"/>
	<circle fill="#008AB5" cx="31.926" cy="54.831" r="2.514"/>
	<circle fill="#1A75B8" cx="31.926" cy="84.436" r="2.514"/>
	<circle fill="#005B96" cx="82.098" cy="84.436" r="2.514"/>
	<circle fill="#005B96" cx="112.486" cy="101.594" r="2.514"/>
	<circle fill="#005B96" cx="83.327" cy="118.172" r="2.514"/>
	<circle fill="#056AA0" cx="57.668" cy="131.895" r="2.514"/>
	<circle fill="#1A75B8" cx="36.144" cy="120.686" r="2.514"/>
	<g>
		
			<rect x="97.152" y="29.468" transform="matrix(0.5035 0.864 -0.864 0.5035 88.6474 -61.5829)" fill="#00B6B7" width="1.509" height="33.744"/>
	</g>
	<g>
		
			<rect x="42.903" y="29.641" transform="matrix(0.4695 0.8829 -0.8829 0.4695 64.191 -46.0448)" fill="#00B6B7" width="55.019" height="1.508"/>
	</g>
	<g>
		
			<rect x="53.246" y="21.224" transform="matrix(0.8661 0.4999 -0.4999 0.8661 22.3719 -39.5478)" fill="#00B6B7" width="63.493" height="1.507"/>
	</g>
	<g>
		
			<rect x="55.694" y="46.546" transform="matrix(0.8667 0.4988 -0.4988 0.8667 32.9871 -28.8586)" fill="#00B6B7" width="29.606" height="1.508"/>
	</g>
	<circle fill="#009CB6" cx="57.666" cy="39.916" r="2.513"/>
	<g>
		
			<rect x="43.958" y="-1.276" transform="matrix(0.4998 0.8661 -0.8661 0.4998 34.0477 -31.9798)" fill="#009CB6" width="1.507" height="29.529"/>
	</g>
	<g>
		
			<rect x="16.465" y="12.38" transform="matrix(0.4998 0.8662 -0.8662 0.4998 34.0452 -0.2274)" fill="#009CB6" width="1.509" height="33.962"/>
	</g>
	<circle fill="#008AB5" cx="2.513" cy="37.848" r="2.513"/>
	<circle fill="#009CB6" cx="31.926" cy="21.37" r="2.514"/>
	<circle fill="#00B6B7" cx="57.498" cy="6.104" r="2.514"/>
	<circle fill="#00B6B7" cx="78.522" cy="18.856" r="2.515"/>
	<circle fill="#00B6B7" cx="83.327" cy="54.831" r="2.514"/>
	<circle fill="#00B6B7" cx="112.486" cy="37.848" r="2.514"/>
	<g>
		
			<rect x="69.129" y="77.563" transform="matrix(0.5195 0.8545 -0.8545 0.5195 112.0693 -15.5752)" fill="#005B96" width="1.509" height="28.586"/>
	</g>
	<g>
		
			<rect x="79.843" y="92.26" transform="matrix(0.8708 0.4917 -0.4917 0.8708 58.312 -35.8189)" fill="#005B96" width="34.898" height="1.51"/>
	</g>
	<g>
		
			<rect x="97.153" y="92.92" transform="matrix(0.5002 0.8659 -0.8659 0.5002 143.9646 -29.9258)" fill="#005B96" width="1.509" height="33.671"/>
	</g>
	<g>
		
			<rect x="57.367" y="99.683" transform="matrix(0.9991 0.0421 -0.0421 0.9991 4.3014 -3.4851)" fill="#005B96" width="55.144" height="1.507"/>
	</g>
	<circle fill="#056AA0" cx="57.666" cy="99.275" r="2.513"/>
</g>
</svg>
