<svg width="32" height="17" viewBox="0 0 32 17" fill="none" xmlns="http://www.w3.org/2000/svg">
    <path d="M3.85402 13.8004H4.79629C5.10121 15.5453 6.62361 16.8771 8.45498 16.8771C10.2859 16.8771 11.8081 15.5453 12.1131 13.8004H19.3585C19.6634 15.5453 21.1857 16.8771 23.0166 16.8771C24.848 16.8771 26.3704 15.5453 26.6753 13.8004H30.115C30.8081 13.8004 31.3716 13.2369 31.3716 12.5439V9.08689C31.3716 7.32118 29.9349 5.88448 28.1692 5.88448H24.3485C21.9916 3.63343 20.8797 0.679932 17.433 0.679932H9.71531C7.96274 0.679932 6.3509 1.56028 5.40332 3.03515L3.57444 5.88448H1.29209C0.93808 5.88448 0.651611 6.17125 0.651611 6.52496V10.598C0.651611 12.3637 2.08832 13.8004 3.85402 13.8004ZM8.45498 15.5962C7.11429 15.5962 6.02362 14.5075 6.01893 13.1682C6.01908 13.1653 6.02065 13.1629 6.02065 13.16C6.02065 13.157 6.01909 13.1546 6.01893 13.1517C6.02362 11.8121 7.11429 10.7234 8.45498 10.7234C9.7985 10.7234 10.8912 11.8164 10.8912 13.16C10.8912 14.5032 9.7985 15.5962 8.45498 15.5962ZM23.0166 15.5962C21.6731 15.5962 20.5804 14.5032 20.5804 13.16C20.5804 11.8164 21.6731 10.7234 23.0166 10.7234C24.3587 10.7234 25.4507 11.8143 25.4529 13.1558C25.4529 13.1573 25.4522 13.1585 25.4522 13.16C25.4522 13.1614 25.4529 13.1626 25.4529 13.1641C25.4507 14.5053 24.3587 15.5962 23.0166 15.5962ZM22.6369 5.88448H14.492V1.9609H17.433C20.0187 1.9609 20.8663 4.1918 22.6369 5.88448ZM6.48163 3.72754C7.19216 2.62139 8.40057 1.9609 9.71531 1.9609H13.2111V5.88448H5.09621L6.48163 3.72754ZM1.93258 7.16544C3.39652 7.16544 29.1567 7.16544 28.1692 7.16544C29.2288 7.16544 30.0906 8.02734 30.0906 9.08689L30.115 12.5195H26.6753C26.3704 10.7743 24.8481 9.44247 23.0166 9.44247C21.1857 9.44247 19.6634 10.7743 19.3585 12.5195H12.1131C11.8081 10.7743 10.2859 9.44247 8.45498 9.44247C6.62345 9.44247 5.10121 10.7743 4.79629 12.5195H3.85402C2.79447 12.5195 1.93258 11.6576 1.93258 10.598V7.16544Z" fill="#0BA0CF"></path>
</svg>