<svg width="28" height="28" viewBox="0 0 28 28" fill="none" xmlns="http://www.w3.org/2000/svg">
<path d="M7.42936 13.3333H18.2881V16H7.42936V13.3333ZM10.144 24H4.71468V2.66667H14.2161V9.33333H21.0028V13.4667L23.7175 10.8V8L15.5734 0H4.71468C3.22161 0 2 1.2 2 2.66667V24C2 25.4667 3.22161 26.6667 4.71468 26.6667H10.144V24ZM7.42936 21.3333H12.9945L14.2161 20.1333V18.6667H7.42936V21.3333ZM23.9889 14.6667C24.1247 14.6667 24.3961 14.8 24.5319 14.9333L26.2964 16.6667C26.5679 16.9333 26.5679 17.4667 26.2964 17.7333L24.9391 19.0667L22.0886 16.2667L23.446 14.9333C23.5817 14.8 23.7175 14.6667 23.9889 14.6667ZM23.9889 19.8667L15.7091 28H12.8587V25.2L21.1385 17.0667L23.9889 19.8667Z" fill="#4C84FF"/>
</svg>
