<svg width="21" height="20" viewBox="0 0 21 20" fill="none" xmlns="http://www.w3.org/2000/svg">
<path fill-rule="evenodd" clip-rule="evenodd" d="M10.5 5.29307C9.52246 5.29307 8.56671 5.56915 7.75409 6.08637C6.94125 6.6036 6.30765 7.33876 5.93359 8.1989C5.55954 9.05902 5.4617 10.0055 5.65247 10.9186C5.84302 11.8317 6.31384 12.6704 7.00513 13.3287C7.6962 13.987 8.57697 14.4354 9.53571 14.617C10.4944 14.7986 11.4882 14.7054 12.3914 14.3491C13.2946 13.9928 14.0664 13.3895 14.6095 12.6154C15.1527 11.8413 15.4426 10.9312 15.4426 10.0003C15.4426 8.75183 14.9218 7.55455 13.9949 6.67178C13.068 5.78901 11.8108 5.29307 10.5 5.29307ZM10.5 13.0558C9.86533 13.0557 9.24518 12.8766 8.71753 12.5408C8.18988 12.205 7.77866 11.7279 7.53598 11.1695C7.29309 10.6112 7.22964 9.99685 7.35333 9.40414C7.47723 8.81142 7.78271 8.26698 8.23132 7.83966C8.68015 7.41234 9.2518 7.12135 9.87408 7.00345C10.4964 6.88555 11.1415 6.94605 11.7277 7.17733C12.3141 7.4086 12.815 7.80024 13.1675 8.30271C13.5202 8.80519 13.7082 9.39593 13.7082 10.0003C13.7082 10.8106 13.3702 11.5878 12.7685 12.1608C12.1669 12.7338 11.3509 13.0558 10.5 13.0558Z" fill="white"/>
<path d="M16.7927 5.10668C16.7927 5.71419 16.2757 6.20666 15.6378 6.20666C15 6.20666 14.4828 5.71419 14.4828 5.10668C14.4828 4.49918 15 4.0067 15.6378 4.0067C16.2757 4.0067 16.7927 4.49918 16.7927 5.10668Z" fill="white"/>
<path fill-rule="evenodd" clip-rule="evenodd" d="M10.5 0.833282C7.88611 0.833282 7.5582 0.843836 6.53174 0.888443C5.5072 0.932973 4.80759 1.08793 4.19534 1.31454C3.55319 1.5447 2.97128 1.90552 2.49063 2.37183C2.00079 2.82967 1.62183 3.38374 1.38022 3.99541C1.14246 4.5785 0.979675 5.24483 0.933105 6.22055C0.886108 7.1981 0.875 7.51038 0.875 9.9999C0.875 12.4894 0.886108 12.8017 0.933105 13.7792C0.979889 14.755 1.14246 15.4213 1.38043 16.0043C1.62225 16.616 2.00101 17.1701 2.49063 17.6279C2.9715 18.0942 3.55319 18.455 4.19534 18.6852C4.80759 18.9118 5.50742 19.0668 6.53174 19.1113C7.55841 19.1559 7.88611 19.1665 10.5 19.1665C13.1141 19.1665 13.442 19.1559 14.4685 19.1113C15.493 19.0668 16.1926 18.9118 16.8049 18.6852C17.444 18.4497 18.0249 18.0896 18.5096 17.6279C18.9943 17.1663 19.3724 16.6133 19.6198 16.0043C19.8575 15.4212 20.0203 14.7549 20.0671 13.7792C20.1139 12.8015 20.125 12.4894 20.125 9.9999C20.125 7.51043 20.1139 7.1981 20.0671 6.22055C20.0203 5.24483 19.8575 4.5785 19.6198 3.99544C19.378 3.38381 18.9992 2.82974 18.5096 2.37185C18.0287 1.90547 17.447 1.54457 16.8047 1.31434C16.1924 1.08793 15.4928 0.932973 14.4683 0.888621C13.4418 0.843836 13.1139 0.833282 10.5 0.833282ZM10.5 2.48494C13.0699 2.48494 13.3743 2.4943 14.3894 2.5384C15.3277 2.57919 15.8374 2.7285 16.1766 2.85403C16.5947 3.00097 16.9728 3.2353 17.2832 3.53973C17.603 3.83542 17.8488 4.19558 18.0033 4.59371C18.1351 4.91671 18.2919 5.40209 18.3346 6.29583C18.381 7.26245 18.3908 7.55234 18.3908 10C18.3908 12.4477 18.381 12.7375 18.3346 13.7042C18.2917 14.5979 18.1349 15.0832 18.0033 15.4063C17.8431 15.8016 17.5978 16.1607 17.2832 16.4603C16.9687 16.7599 16.5917 16.9935 16.1766 17.146C15.8374 17.2715 15.3277 17.4209 14.3894 17.4616C13.3745 17.5057 13.0701 17.5151 10.5 17.5151C7.92969 17.5151 7.62549 17.5057 6.61057 17.4616C5.67212 17.4208 5.16263 17.2715 4.82339 17.146C4.40533 16.999 4.02722 16.7647 3.71661 16.4603C3.39703 16.1646 3.15094 15.8044 2.9967 15.4063C2.8649 15.0833 2.7081 14.5979 2.66516 13.7042C2.61902 12.7376 2.60919 12.4477 2.60919 10C2.60919 7.55234 2.61902 7.26252 2.66516 6.29583C2.7081 5.40209 2.8649 4.91676 2.9967 4.59371C3.15094 4.19556 3.39703 3.83537 3.71683 3.53971C4.02722 3.23524 4.40533 3.00095 4.82339 2.85398C5.16263 2.72845 5.67212 2.57912 6.61057 2.53838C7.62549 2.49428 7.9299 2.48492 10.5 2.48494Z" fill="white"/>
</svg>
