<svg width="32" height="32" viewBox="0 0 32 32" fill="none" xmlns="http://www.w3.org/2000/svg">
<path d="M16 4C9.37426 4 4 9.37426 4 16C4 22.6257 9.37426 28 16 28C22.6257 28 28 22.6257 28 16C28 9.37426 22.6257 4 16 4ZM16 5.02787C18.0981 5.02787 20.0526 5.62276 21.7186 6.6431L18.9041 10.4528C18.0355 9.99639 17.0469 9.73487 16 9.73487C14.9531 9.73487 13.9645 9.99639 13.0959 10.4528L10.2814 6.6431C11.9474 5.62276 13.9019 5.02787 16 5.02787ZM9.40857 7.2223L12.2148 11.0156C11.7651 11.3582 11.3587 11.7573 11.0156 12.2067L7.2223 9.40857C7.84417 8.58149 8.58149 7.84417 9.40857 7.2223ZM22.5914 7.2223C23.4185 7.84417 24.1558 8.58149 24.7777 9.40857L20.9844 12.2067C20.6413 11.7573 20.2349 11.3582 19.7852 11.0156L22.5914 7.2223ZM6.6431 10.2733L10.4528 13.0877C9.99429 13.9579 9.73487 14.9506 9.73487 16C9.73487 17.0469 9.99639 18.0355 10.4528 18.9041L6.6431 21.7186C5.62276 20.0526 5.02787 18.0981 5.02787 16C5.02787 13.8994 5.62056 11.9405 6.6431 10.2733ZM25.3569 10.2733C26.3794 11.9405 26.9721 13.8994 26.9721 16C26.9721 18.0981 26.3772 20.0526 25.3569 21.7186L21.5472 18.9041C22.0036 18.0355 22.2651 17.0469 22.2651 16C22.2651 14.9506 22.0057 13.9579 21.5472 13.0877L25.3569 10.2733ZM16 10.7791C18.8896 10.7791 21.2209 13.1104 21.2209 16C21.2209 18.8896 18.8896 21.2209 16 21.2209C13.1104 21.2209 10.7791 18.8896 10.7791 16C10.7791 13.1104 13.1104 10.7791 16 10.7791ZM11.0156 19.7852C11.3582 20.2349 11.7573 20.6413 12.2067 20.9844L9.40857 24.7777C8.57978 24.1545 7.84498 23.4124 7.2223 22.5833L11.0156 19.7852ZM20.9844 19.7852L24.7777 22.5833C24.155 23.4124 23.4202 24.1545 22.5914 24.7777L19.7933 20.9844C20.2427 20.6413 20.6418 20.2349 20.9844 19.7852ZM13.0959 21.5472C13.9645 22.0036 14.9531 22.2651 16 22.2651C17.0469 22.2651 18.0355 22.0036 18.9041 21.5472L21.7267 25.3569C20.0595 26.3794 18.1005 26.9721 16 26.9721C13.8995 26.9721 11.9405 26.3794 10.2733 25.3569L13.0959 21.5472Z" fill="#08A86F"/>
</svg>
