<svg width="32" height="32" viewBox="0 0 32 32" fill="none" xmlns="http://www.w3.org/2000/svg">
<path fill-rule="evenodd" clip-rule="evenodd" d="M11.0771 3.99976H11.5771H20.8657H21.3657V4.49976V8.5564H27.5005H28.0005V9.0564V27.5002V28.0002H27.5005H4.5H4V27.5002V13.3461V12.8461H4.5H11.0771V4.49976V3.99976ZM12.0771 6.79615V13.3461V13.8461H12.0769V27.0002H13.7308L13.7308 26.9594L13.7308 26.6847L13.7308 25.731L13.7308 23.077C13.7308 22.5476 13.8646 22.1129 14.1035 21.769C14.3402 21.4281 14.6563 21.2104 14.9677 21.0721C15.5628 20.8076 16.2027 20.8078 16.4313 20.8079L16.4424 20.8079C16.7691 20.8079 17.2963 20.9514 17.7409 21.2054C18.1759 21.454 18.7117 21.9162 18.7116 22.6347L18.7116 25.1781L18.7117 26.4912L18.7117 26.9041L18.7117 27.0002H20.3656V9.36517H20.3657V9.0564V6.79615H12.0771ZM12.0771 5.79615H20.3657V4.99976H12.0771V5.79615ZM5 13.8461H11.0769V15.0574H5V13.8461ZM5 27.0002V16.0574H11.0769V27.0002H5ZM17.7117 27.0002H14.7308L14.7308 26.9594L14.7308 26.6847L14.7308 25.7309L14.7308 23.077C14.7308 22.7219 14.8181 22.4931 14.9248 22.3394C15.0336 22.1827 15.1875 22.0687 15.3738 21.9859C15.7639 21.8125 16.2184 21.8079 16.4424 21.8079C16.558 21.8079 16.9154 21.8855 17.2448 22.0737C17.5839 22.2674 17.7116 22.4686 17.7116 22.6347L17.7116 25.1781L17.7117 26.4912L17.7117 26.9041L17.7117 27.0002ZM27.0005 27.0002H21.3656V11.634H27.0005V27.0002ZM27.0005 9.5564V10.634H21.3656V9.5564H27.0005ZM14.173 8.92248V16.4419H15.173V8.92248H14.173ZM25.7311 14.2881H22.6348V13.2881H25.7311V14.2881ZM6.71138 18.711H9.8076V17.711H6.71138V18.711ZM25.7311 17.3845H22.6348V16.3845H25.7311V17.3845ZM6.71138 21.8079H9.8076V20.8079H6.71138V21.8079ZM25.7311 20.4803H22.6348V19.4803H25.7311V20.4803ZM6.71138 24.9037H9.8076V23.9037H6.71138V24.9037ZM25.7311 23.5767H22.6348V22.5767H25.7311V23.5767ZM17.2693 16.4419V8.92248H18.2693V16.4419H17.2693Z" fill="#ED4545"/>
</svg>
