<svg xmlns="http://www.w3.org/2000/svg" xmlns:xlink="http://www.w3.org/1999/xlink" width="512" height="3584" viewBox="0 0 512 3584"><svg data-name="icon-bag" viewBox="0 0 512 512" width="512" height="512" id="icon-bag" y="0"><title>icon-bag</title><path d="M426.1 495H85.4a7.09 7.09 0 0 1-5.2-2.2 6.93 6.93 0 0 1-2-5.3l16.2-340.7a7.17 7.17 0 0 1 7.2-6.9h308.2a7.17 7.17 0 0 1 7.2 6.9l16.2 340.7a7.18 7.18 0 0 1-7.1 7.5zM93 480.6h325.6L403 154.3H108.5z"></path><path d="M333.7 183.2a7.17 7.17 0 0 1-7.2-7.2v-71.7a70.75 70.75 0 0 0-141.5 0V176a7.2 7.2 0 0 1-14.4 0v-71.7a85.2 85.2 0 1 1 170.4 0V176a7.39 7.39 0 0 1-7.3 7.2z"></path></svg><svg data-name="icon-bag-full" viewBox="0 0 512 512" width="512" height="512" id="icon-bag-full" y="512"><title>icon-bag-full</title><path class="cls-1" d="M108.5 154.3L93 480.6h325.6L403 154.3H108.5z"></path><path d="M417 146.8a7.17 7.17 0 0 0-7.2-6.9H101.6a7.17 7.17 0 0 0-7.2 6.9L78.2 487.5a6.93 6.93 0 0 0 2 5.3 7.09 7.09 0 0 0 5.2 2.2h340.95a7.18 7.18 0 0 0 6.85-7.49z"></path><path d="M333.7 183.2a7.17 7.17 0 0 1-7.2-7.14V104.3a70.75 70.75 0 1 0-141.5 0V176a7.2 7.2 0 0 1-14.4 0v-71.7a85.2 85.2 0 0 1 170.4 0V176a7.39 7.39 0 0 1-7.3 7.2z"></path></svg><svg id="icon-close" viewBox="0 0 512 512" width="512" height="512" y="1024"><defs><style>.cls1{fill:none;stroke:#000;stroke-linecap:round;stroke-linejoin:round;stroke-width:18px}</style></defs><title>icon-close</title><path class="cls1" d="M80 432l176-176L80.05 80.05m351.95 0L256 256l176 176"></path></svg><svg data-name="icon-search" viewBox="0 0 512 512" width="512" height="512" id="icon-search" y="1536"><title>icon-search</title><path d="M482.7 480.2l-133.6-139a188.22 188.22 0 0 0 55.2-133.3C404.3 103.7 319.5 19 215.4 19S26.5 103.7 26.5 207.9s84.7 188.9 188.9 188.9a187.67 187.67 0 0 0 120.4-43.5l134 139.3a9.18 9.18 0 0 0 6.5 2.8 8.77 8.77 0 0 0 6.2-2.5 9.09 9.09 0 0 0 .2-12.7zM215.4 378.8c-94.2 0-170.9-76.7-170.9-170.9S121.2 37 215.4 37s170.9 76.7 170.9 170.9-76.7 170.9-170.9 170.9z"></path></svg><svg data-name="icon-user" viewBox="0 0 512 512" width="512" height="512" id="icon-user" y="2048"><title>icon-user</title><path d="M494 257c0-131.2-106.8-238-238-238S18 125.8 18 257a237.15 237.15 0 0 0 77.3 175.3l-.2.2 7.7 6.5 1.5 1.2c4.1 3.4 8.4 6.6 12.7 9.8l4.2 3c4.6 3.2 9.4 6.2 14.2 9.1 1.1.6 2.1 1.2 3.2 1.8 5.3 3 10.7 5.9 16.3 8.5l1.2.6a234.44 234.44 0 0 0 57.6 18.2l1.6.3c6.3 1.1 12.6 1.9 19 2.5.8.1 1.6.1 2.3.2 6.4.5 12.8.9 19.4.9s12.9-.3 19.2-.8c.8-.1 1.6-.1 2.4-.2 6.4-.6 12.6-1.4 18.8-2.5l1.6-.3a235.54 235.54 0 0 0 56.7-17.8c.7-.3 1.3-.6 2-.9 5.3-2.5 10.6-5.2 15.7-8.1 1.3-.7 2.5-1.4 3.8-2.2 4.7-2.7 9.2-5.6 13.7-8.7 1.6-1.1 3.2-2.2 4.8-3.4 3.8-2.7 7.5-5.6 11.2-8.5.8-.6 1.7-1.2 2.5-1.9l7.9-6.6-.3-.2a237.35 237.35 0 0 0 78-176zm-458.7 0c0-121.7 99-220.7 220.7-220.7s220.7 99 220.7 220.7a220.4 220.4 0 0 1-74.3 165 55.89 55.89 0 0 0-7.7-4.6l-73.3-36.6a19.17 19.17 0 0 1-10.7-17.2V338c1.7-2.1 3.5-4.5 5.3-7.1a174.64 174.64 0 0 0 22.6-44.3 31.28 31.28 0 0 0 18-28.5v-30.7a31.6 31.6 0 0 0-7.7-20.5v-40.4c.5-4.5 2-29.8-16.3-50.8-16-18.2-41.8-27.4-76.7-27.4s-60.8 9.2-76.7 27.4c-18.3 20.9-16.7 46.3-16.3 50.8v40.4a31.6 31.6 0 0 0-7.7 20.5V258a31.57 31.57 0 0 0 11.6 24.4c7 27.5 21.4 48.2 26.8 55.3v25a19.13 19.13 0 0 1-10.1 16.9L115.2 417c-2.2 1.2-4.3 2.6-6.5 4.1A220.08 220.08 0 0 1 35.3 257zm350.2 178.6c-3 2.2-6.1 4.3-9.2 6.4-1.4.9-2.9 1.9-4.3 2.8-4.1 2.5-8.2 4.9-12.5 7.2-.9.5-1.9 1-2.8 1.4a217.1 217.1 0 0 1-30.2 12.8c-.4.1-.7.3-1.1.4q-8.1 2.7-16.5 4.8h-.1c-5.6 1.4-11.3 2.5-17 3.5-.2 0-.3.1-.5.1-5.4.9-10.8 1.5-16.2 2-1 .1-1.9.1-2.9.2-5.4.4-10.8.7-16.2.7s-11-.3-16.4-.7c-.9-.1-1.9-.1-2.8-.2-5.5-.5-10.9-1.1-16.4-2-.2 0-.5-.1-.7-.1a218.48 218.48 0 0 1-33.7-8.4c-.3-.1-.7-.2-1-.3-5.4-1.9-10.8-3.9-16.1-6.2a.1.1 0 0 1-.1-.1c-5-2.2-9.9-4.5-14.8-7.1a17.37 17.37 0 0 1-1.9-1c-4.4-2.4-8.7-4.9-13-7.6-1.3-.8-2.5-1.6-3.8-2.4-3.9-2.6-7.8-5.2-11.6-8.1l-1.2-.9a5.58 5.58 0 0 0 .8-.5l68.4-37.3a36.47 36.47 0 0 0 19.1-32.1v-31.2l-2-2.4c-.2-.2-18.9-23-26-53.8l-.8-3.4-3-1.9a14.3 14.3 0 0 1-6.7-12v-30.7a14.22 14.22 0 0 1 4.8-10.6l2.9-2.6v-48.2l-.1-1.1c0-.2-2.6-21 12.1-37.7 12.5-14.3 34-21.5 63.7-21.5s51 7.2 63.6 21.3c14.6 16.5 12.2 37.7 12.2 37.9l-.1 49.3 2.9 2.6a14.22 14.22 0 0 1 4.8 10.6V258a14.34 14.34 0 0 1-10.2 13.6l-4.3 1.3-1.4 4.3a159.37 159.37 0 0 1-21.6 43.5c-2.3 3.2-4.5 6-6.4 8.2l-2.1 2.4v32a36.36 36.36 0 0 0 20.2 32.7l73.3 36.6c.5.2.9.5 1.4.7a11 11 0 0 1-2.5 2.3z"></path></svg><svg data-name="icon-whislist" viewBox="0 0 512 512" width="512" height="512" id="icon-whislist" y="2560"><title>icon-whislist</title><path d="M511.2 160.9C503.7 78.6 445.5 19 372.6 19c-48.5 0-93 26.1-118 68-24.8-42.4-67.4-68-115.2-68C66.6 19 8.3 78.6.9 160.9c-.6 3.6-3 22.8 4.4 53.9 10.6 45 35.1 85.9 70.9 118.3L254.5 495l181.4-161.9c35.8-32.4 60.3-73.3 70.9-118.3 7.4-31.1 4.9-50.3 4.4-53.9zm-23.6 49.4c-9.7 41.1-32.1 78.5-64.9 108.2l-168.1 150-165.3-150C56.5 288.8 34 251.4 24.4 210.3c-7-29.5-4.1-46.2-4.1-46.3l.1-1c6.4-72 56.5-124.3 119-124.3 46.2 0 86.8 28.4 106.1 74l9.1 21.5 9.1-21.5c19-44.9 61.7-74 109-74 62.5 0 112.6 52.3 119.1 125.3-.1.1 2.8 16.8-4.2 46.3z"></path></svg><svg viewBox="0 0 512 512" width="512" height="512" id="icon-whislist-full" y="3072"><title>icon-whislist-full</title><path d="M511.2 160.9C503.7 78.6 445.5 19 372.6 19c-48.5 0-93 26.1-118 68-24.8-42.4-67.4-68-115.2-68C66.6 19 8.3 78.6.9 160.9c-.6 3.6-3 22.8 4.4 53.9 10.6 45 35.1 85.9 70.9 118.3L254.5 495l181.4-161.9c35.8-32.4 60.3-73.3 70.9-118.3 7.4-31.1 4.9-50.3 4.4-53.9z"></path></svg></svg>