<svg width="21" height="20" viewBox="0 0 21 20" fill="none" xmlns="http://www.w3.org/2000/svg">
<path fill-rule="evenodd" clip-rule="evenodd" d="M18.2875 1.66672H2.7125C2.1875 1.66672 1.75 2.08338 1.75 2.58338V17.4167C1.75 17.9167 2.1875 18.3334 2.7125 18.3334H11.1125V11.9167H8.8375V9.41672H11.1125V7.50005C11.1125 5.33338 12.5125 4.16672 14.525 4.16672C15.4875 4.16672 16.3625 4.25005 16.5375 4.25005V6.50005H15.1375C14 6.50005 13.825 7.00005 13.825 7.75005V9.33338H16.45L16.1 11.8334H13.825V18.3334H18.2875C18.8125 18.3334 19.25 17.9167 19.25 17.4167V2.58338C19.25 2.08338 18.8125 1.66672 18.2875 1.66672Z" fill="white"/>
</svg>
