<svg width="80" height="83" viewBox="0 0 80 83" fill="none" xmlns="http://www.w3.org/2000/svg">
<path opacity="0.5" d="M45 70C64.33 70 80 54.33 80 35C80 15.67 64.33 0 45 0C25.67 0 10 15.67 10 35C10 54.33 25.67 70 45 70Z" fill="url(#paint0_linear)"/>
<path fill-rule="evenodd" clip-rule="evenodd" d="M62.36 41.5762H59.48H36.44V31.3842H41.48H62.36V41.5762ZM36.44 76.5202H58.04V44.4882H36.44V76.5202ZM11.96 76.5202H33.56V44.4882H11.96V76.5202ZM7.64001 31.3842H28.52H33.56V41.5762H10.52H7.64001V31.3842ZM23.48 23.3762C23.48 20.5668 25.7408 18.2802 28.52 18.2802C31.2992 18.2802 33.56 20.5668 33.56 23.3762V28.4722H28.52C25.7408 28.4722 23.48 26.1855 23.48 23.3762ZM41.48 18.2802C44.2592 18.2802 46.52 20.5668 46.52 23.3762C46.52 26.1855 44.2592 28.4722 41.48 28.4722H36.44V23.3762C36.44 20.5668 38.7008 18.2802 41.48 18.2802ZM63.8 28.4722H47.5892C48.7211 27.0875 49.4 25.3119 49.4 23.3762C49.4 18.9536 45.854 15.3682 41.48 15.3682C38.7987 15.3682 36.4328 16.7186 35 18.781C33.5672 16.7186 31.2013 15.3682 28.52 15.3682C24.146 15.3682 20.6 18.9536 20.6 23.3762C20.6 25.3119 21.2797 27.0875 22.4108 28.4722H6.20001C5.40513 28.4722 4.76001 29.1245 4.76001 29.9282V43.0322C4.76001 43.8359 5.40513 44.4882 6.20001 44.4882H9.08001V77.9762C9.08001 78.7799 9.72513 79.4322 10.52 79.4322H33.56H36.44H59.48C60.2749 79.4322 60.92 78.7799 60.92 77.9762V44.4882H63.8C64.5949 44.4882 65.24 43.8359 65.24 43.0322V29.9282C65.24 29.1245 64.5949 28.4722 63.8 28.4722Z" fill="black"/>
<path fill-rule="evenodd" clip-rule="evenodd" d="M64.9819 77.976L64.0026 78.9669C63.7363 79.2354 63.7335 79.6808 64.004 79.9542C64.2758 80.229 64.7108 80.2276 64.9806 79.9556L65.9599 78.9648L66.9393 79.9556C67.2056 80.2241 67.6462 80.2269 67.9159 79.9542C68.1884 79.6787 68.187 79.2389 67.9173 78.9669L66.9379 77.976L67.9173 76.9851C68.1836 76.7166 68.1863 76.2712 67.9159 75.9978C67.6448 75.7229 67.209 75.7243 66.9393 75.9964L65.9599 76.9872L64.9806 75.9964C64.7143 75.7278 64.2744 75.725 64.004 75.9978C63.7315 76.2733 63.7328 76.7131 64.0026 76.9851L64.9819 77.976Z" fill="#4C84FF"/>
<path fill-rule="evenodd" clip-rule="evenodd" d="M68.1199 59.0483C67.7196 59.0483 67.3999 59.3738 67.3999 59.7763C67.3999 60.1811 67.7225 60.5043 68.1199 60.5043C68.5202 60.5043 68.8399 60.1789 68.8399 59.7763C68.8399 59.3716 68.5173 59.0483 68.1199 59.0483Z" fill="black"/>
<path fill-rule="evenodd" clip-rule="evenodd" d="M66.68 23.376C66.2796 23.376 65.96 23.7014 65.96 24.104C65.96 24.5087 66.2825 24.832 66.68 24.832C67.0803 24.832 67.4 24.5066 67.4 24.104C67.4 23.6992 67.0774 23.376 66.68 23.376Z" fill="black"/>
<path fill-rule="evenodd" clip-rule="evenodd" d="M58.0399 18.2802C57.6432 18.2802 57.3199 17.9533 57.3199 17.5522C57.3199 17.151 57.6432 16.8242 58.0399 16.8242C58.4366 16.8242 58.7599 17.151 58.7599 17.5522C58.7599 17.9533 58.4366 18.2802 58.0399 18.2802ZM58.0399 15.3682C56.8468 15.3682 55.8799 16.3459 55.8799 17.5522C55.8799 18.7585 56.8468 19.7362 58.0399 19.7362C59.2329 19.7362 60.1999 18.7585 60.1999 17.5522C60.1999 16.3459 59.2329 15.3682 58.0399 15.3682Z" fill="#4C84FF"/>
<path fill-rule="evenodd" clip-rule="evenodd" d="M2.59988 14.6401C2.19956 14.6401 1.87988 14.9663 1.87988 15.3681C1.87988 15.7729 2.20244 16.0961 2.59988 16.0961C3.0002 16.0961 3.31988 15.77 3.31988 15.3681C3.31988 14.9634 2.99732 14.6401 2.59988 14.6401Z" fill="black"/>
<path fill-rule="evenodd" clip-rule="evenodd" d="M5.47992 53.2241C5.47992 52.8193 5.15736 52.4961 4.75992 52.4961C4.3596 52.4961 4.03992 52.8222 4.03992 53.2241C4.03992 53.6289 4.36248 53.9521 4.75992 53.9521C5.16024 53.9521 5.47992 53.6259 5.47992 53.2241Z" fill="black"/>
<path fill-rule="evenodd" clip-rule="evenodd" d="M1.15994 69.9683C0.759621 69.9683 0.439941 70.2937 0.439941 70.6963C0.439941 71.101 0.762501 71.4243 1.15994 71.4243C1.56026 71.4243 1.87994 71.0988 1.87994 70.6963C1.87994 70.2915 1.55738 69.9683 1.15994 69.9683Z" fill="#4C84FF"/>
<path fill-rule="evenodd" clip-rule="evenodd" d="M1.87991 80.8882C1.47959 80.8882 1.15991 81.2136 1.15991 81.6162C1.15991 82.0209 1.48247 82.3442 1.87991 82.3442C2.28023 82.3442 2.59991 82.0188 2.59991 81.6162C2.59991 81.2114 2.27735 80.8882 1.87991 80.8882Z" fill="black"/>
<path fill-rule="evenodd" clip-rule="evenodd" d="M6.91998 24.832C6.91998 24.4272 6.59742 24.104 6.19998 24.104C5.79966 24.104 5.47998 24.4301 5.47998 24.832C5.47998 25.2368 5.80254 25.56 6.19998 25.56C6.6003 25.56 6.91998 25.2339 6.91998 24.832Z" fill="black"/>
<path fill-rule="evenodd" clip-rule="evenodd" d="M15.5628 17.5521H13.4V15.3645C13.4 14.9721 13.0774 14.6401 12.68 14.6401C12.2789 14.6401 11.96 14.9641 11.96 15.3645V17.5521H9.79636C9.40756 17.5521 9.07996 17.8776 9.07996 18.2801C9.07996 18.6849 9.40036 19.0081 9.79636 19.0081H11.96V21.1958C11.96 21.5882 12.2818 21.9201 12.68 21.9201C13.0803 21.9201 13.4 21.5962 13.4 21.1958V19.0081H15.5628C15.9516 19.0081 16.28 18.6827 16.28 18.2801C16.28 17.8754 15.9588 17.5521 15.5628 17.5521Z" fill="#4C84FF"/>
<defs>
<linearGradient id="paint0_linear" x1="45" y1="0" x2="45" y2="70" gradientUnits="userSpaceOnUse">
<stop offset="0.430939" stop-color="#D2DFFF"/>
<stop offset="1" stop-color="white" stop-opacity="0"/>
</linearGradient>
</defs>
</svg>
