<svg width="32" height="32" viewBox="0 0 32 32" fill="none" xmlns="http://www.w3.org/2000/svg">
    <path fill-rule="evenodd" clip-rule="evenodd" d="M3.22273 13.1481C3.10039 13.0396 3.02616 12.887 3.01636 12.7237C2.94374 11.5662 3.11339 10.4061 3.51449 9.31784C3.91558 8.22954 4.53929 7.23687 5.34576 6.40328C6.08433 5.64054 6.96914 5.03458 7.94727 4.62165C8.92541 4.20872 9.97677 3.9973 11.0385 4.00003C12.6509 4.00003 14.4172 4.86778 16.2912 6.59406C17.909 5.11929 20.0163 4.29697 22.2055 4.2862C23.1436 4.27996 24.0733 4.46377 24.9386 4.82657C25.8038 5.18936 26.5865 5.72362 27.2397 6.39712C28.7419 7.95873 29.5811 10.0414 29.5811 12.2083C29.5811 14.3752 28.7419 16.4579 27.2397 18.0195L17.3128 27.5741C17.0324 27.8472 16.6564 28 16.265 28C15.8736 28 15.4976 27.8472 15.2173 27.5741L8.44753 21.0351C8.33001 20.9217 8.26237 20.7662 8.25948 20.6029C8.2566 20.4396 8.3187 20.2818 8.43214 20.1643C8.54558 20.0468 8.70106 19.9791 8.86437 19.9762C8.94524 19.9748 9.02559 19.9893 9.10085 20.0189C9.1761 20.0486 9.24479 20.0927 9.30298 20.1489L16.0727 26.6878C16.124 26.7384 16.193 26.7667 16.265 26.7667C16.337 26.7667 16.4061 26.7384 16.4573 26.6878L26.3473 17.1487C27.6207 15.8173 28.3313 14.046 28.3313 12.2037C28.3313 10.3614 27.6207 8.59012 26.3473 7.25873C25.8067 6.70282 25.1591 6.26218 24.4435 5.96337C23.728 5.66457 22.9593 5.51379 22.1839 5.52014H22.1378C20.1163 5.55991 18.1913 6.392 16.7774 7.83723C16.6485 7.96389 16.475 8.03487 16.2943 8.03487C16.1135 8.03487 15.94 7.96389 15.8111 7.83723C14.0602 6.13249 12.4078 5.23089 11.0385 5.23089C10.1412 5.22802 9.2525 5.40613 8.42559 5.75455C7.59868 6.10297 6.85051 6.61456 6.22583 7.25873C5.53918 7.97029 5.00854 8.8173 4.66785 9.7456C4.32715 10.6739 4.18389 11.6631 4.24722 12.6499C4.25702 12.8131 4.20157 12.9735 4.09308 13.0959C3.98459 13.2182 3.83194 13.2924 3.66872 13.3022C3.5055 13.312 3.34507 13.2566 3.22273 13.1481ZM7.46957 17.5746C7.37789 17.6286 7.2738 17.6578 7.16744 17.6595L4.64418 17.6749C4.48096 17.6749 4.32442 17.6101 4.20901 17.4946C4.09359 17.3792 4.02875 17.2227 4.02875 17.0595C4.02875 16.8963 4.09359 16.7397 4.20901 16.6243C4.32442 16.5089 4.48096 16.444 4.64418 16.444H6.82588L8.17059 14.2654C8.22376 14.1733 8.2999 14.0965 8.39158 14.0426C8.48326 13.9887 8.58736 13.9594 8.69371 13.9577C8.79778 13.958 8.90006 13.9847 8.99101 14.0353C9.08196 14.0859 9.15859 14.1587 9.21375 14.247L10.4446 16.2194L12.4971 10.9575C12.5444 10.8362 12.629 10.7331 12.7387 10.6629C12.8484 10.5928 12.9775 10.5592 13.1075 10.5671C13.2375 10.575 13.3616 10.6239 13.462 10.7067C13.5624 10.7896 13.634 10.9022 13.6664 11.0283L15.368 17.878L17.2143 14.367C17.2638 14.2601 17.3428 14.1697 17.4421 14.1065C17.5413 14.0432 17.6567 14.0097 17.7744 14.01C17.8828 14.0096 17.9894 14.0378 18.0835 14.0919C18.1775 14.1459 18.2556 14.2238 18.3098 14.3177L19.476 16.3979H21.9685C22.1317 16.3979 22.2883 16.4627 22.4037 16.5781C22.5191 16.6936 22.584 16.8501 22.584 17.0133C22.584 17.1765 22.5191 17.3331 22.4037 17.4485C22.2883 17.5639 22.1317 17.6287 21.9685 17.6287H19.1099C19.0014 17.6292 18.8948 17.6009 18.8008 17.5469C18.7067 17.4929 18.6286 17.4149 18.5744 17.321L17.7898 15.9209L15.7373 19.8535C15.6851 19.9528 15.6068 20.036 15.5108 20.094C15.4148 20.1521 15.3048 20.1827 15.1926 20.1828H15.1219C14.9977 20.1684 14.8808 20.1165 14.7868 20.0341C14.6928 19.9516 14.6261 19.8425 14.5957 19.7212L12.9432 13.1761L11.1523 17.7918C11.1111 17.8983 11.0411 17.9913 10.9501 18.0602C10.859 18.1292 10.7506 18.1715 10.6369 18.1823C10.5232 18.1932 10.4088 18.1722 10.3063 18.1217C10.2039 18.0712 10.1175 17.9932 10.0569 17.8965L8.69371 15.724L7.69056 17.3518C7.63739 17.4439 7.56125 17.5207 7.46957 17.5746Z" fill="#F3880C"></path>
</svg>