<svg width="32" height="32" viewBox="0 0 32 32" fill="none" xmlns="http://www.w3.org/2000/svg">
<path d="M27.9502 26.5424H25.2064V15.9226H27.9502C28.2267 15.9226 28.4724 15.726 28.5645 15.431C28.6567 15.136 28.5645 14.8121 28.3444 14.6212L16.1918 4.15183C15.9614 3.94939 15.6389 3.94939 15.4086 4.15183L3.25595 14.6154C3.03583 14.8063 2.94881 15.1302 3.03583 15.4252C3.12286 15.7202 3.36857 15.9169 3.65012 15.9169H6.39393V26.5424H3.645C3.28667 26.5424 3 26.8663 3 27.2712C3 27.6703 3.28667 28 3.645 28H27.9502C28.3086 28 28.5952 27.6761 28.5952 27.2712C28.5952 26.8721 28.3034 26.5424 27.9502 26.5424ZM5.5544 14.465L15.7976 5.63837L26.0408 14.465H24.7713L16.1815 7.36784C15.9563 7.18274 15.644 7.18274 15.4188 7.36784L6.82393 14.465H5.5544ZM13.3865 19.0519H18.2138V26.5482H13.3865V19.0519ZM19.5038 26.5424V18.3231C19.5038 17.924 19.2171 17.5943 18.8588 17.5943H12.7364C12.5675 17.5943 12.3986 17.6695 12.2808 17.8083C12.158 17.9471 12.0914 18.1322 12.0914 18.3231V26.5482H7.68393V15.564L15.7976 8.86016L23.9113 15.564V26.5482H19.5038V26.5424Z" fill="#9B4CFF"/>
</svg>
