<svg width="21" height="20" viewBox="0 0 21 20" fill="none" xmlns="http://www.w3.org/2000/svg">
<path fill-rule="evenodd" clip-rule="evenodd" d="M17.9375 1.66672H3.0625C2.3625 1.66672 1.75 2.16672 1.75 2.83338V17.0834C1.75 17.8334 2.3625 18.3334 3.0625 18.3334H17.9375C18.6375 18.3334 19.25 17.8334 19.25 17.1667V2.83338C19.25 2.16672 18.6375 1.66672 17.9375 1.66672ZM6.9125 15.8334H4.375V7.91672H7V15.8334H6.9125ZM5.6 6.83338C4.725 6.83338 4.1125 6.16672 4.1125 5.41672C4.1125 4.66672 4.8125 4.00005 5.6 4.00005C6.3875 4.00005 7.0875 4.66672 7.0875 5.41672C7.0875 6.16672 6.475 6.83338 5.6 6.83338ZM16.625 15.8334H14V12.0001C14 11.0834 14 9.91672 12.6875 9.91672C11.375 9.91672 11.1125 10.9167 11.1125 12.0001V15.8334H8.4875V7.91672H10.9375V9.00005C11.2875 8.33338 12.1625 7.75005 13.3875 7.75005C16.0125 7.75005 16.5375 9.41672 16.5375 11.5001V15.8334H16.625Z" fill="white"/>
</svg>
