<svg width="28" height="28" viewBox="0 0 28 28" fill="none" xmlns="http://www.w3.org/2000/svg">
<path d="M6 18.6667H9.04C9.04 20.3467 11.1224 21.7778 13.6 21.7778C16.0776 21.7778 18.16 20.3467 18.16 18.6667C18.16 16.9556 16.5792 16.3333 13.2352 15.5089C10.0128 14.6844 6 13.6578 6 9.33333C6 6.54889 8.2344 4.18444 11.32 3.39111V0H15.88V3.39111C18.9656 4.18444 21.2 6.54889 21.2 9.33333H18.16C18.16 7.65333 16.0776 6.22222 13.6 6.22222C11.1224 6.22222 9.04 7.65333 9.04 9.33333C9.04 11.0444 10.6208 11.6667 13.9648 12.4911C17.1872 13.3156 21.2 14.3422 21.2 18.6667C21.2 21.4511 18.9656 23.8156 15.88 24.6089V28H11.32V24.6089C8.2344 23.8156 6 21.4511 6 18.6667Z" fill="#4C84FF"/>
</svg>
