<svg width="28" height="28" viewBox="0 0 28 28" fill="none" xmlns="http://www.w3.org/2000/svg">
<g clip-path="url(#clip0)">
<path d="M25.9093 12.7273C25.9093 19.7909 21.0221 26.3964 14.4548 28C7.88752 26.3964 3.00024 19.7909 3.00024 12.7273V5.09091L14.4548 0L25.9093 5.09091V12.7273ZM14.4548 25.4545C19.2275 24.1818 23.3639 18.5055 23.3639 13.0073V6.74545L14.4548 2.77455L5.5457 6.74545V13.0073C5.5457 18.5055 9.68206 24.1818 14.4548 25.4545ZM17.3566 11.1109C18.0948 11.8491 18.5021 12.8291 18.5021 13.8727C18.5021 14.9291 18.0948 15.9091 17.3566 16.6473L14.7857 19.2182C14.0221 19.9818 13.0166 20.3636 12.0112 20.3636C11.0057 20.3636 10.0002 19.9818 9.23661 19.2182C7.70934 17.6909 7.70934 15.2091 9.23661 13.6691L10.8275 12.0909L10.8148 12.8036C10.8148 13.3636 10.9039 13.9364 11.0948 14.4582L11.1457 14.6364L10.6875 15.1073C10.3184 15.4636 10.1275 15.9091 10.1275 16.4436C10.1275 16.94 10.3184 17.4109 10.6748 17.7673C11.4002 18.4927 12.6348 18.4927 13.3475 17.78L15.9057 15.2091C16.2748 14.8527 16.4657 14.3818 16.4657 13.8855C16.4657 13.3636 16.2748 12.9055 15.9057 12.5491C15.7275 12.3582 15.6002 12.0909 15.6002 11.8236C15.6002 11.5564 15.7275 11.2891 15.9057 11.0982C16.3002 10.7164 17.0002 10.7164 17.3566 11.1109ZM22.0912 10.2836C22.0912 11.3273 21.6839 12.32 20.9457 13.0582L19.3548 14.6364L19.3675 13.9236C19.3675 13.3636 19.2784 12.8036 19.0875 12.2691L19.0239 12.0909L19.4948 11.62C19.8639 11.2636 20.0548 10.8182 20.0548 10.2836C20.0548 9.78727 19.8639 9.31636 19.4948 8.96C18.7821 8.23455 17.5475 8.23455 16.8348 8.94727L14.2766 11.5182C13.9075 11.8745 13.7166 12.3455 13.7166 12.8545C13.7166 13.3636 13.9075 13.8218 14.2639 14.1782C14.4548 14.3691 14.5821 14.6364 14.5821 14.9036C14.5821 15.1836 14.4548 15.4382 14.2639 15.6291C14.073 15.82 13.8184 15.9091 13.5512 15.9091C13.2966 15.9091 13.0293 15.82 12.8257 15.6291C11.273 14.0891 11.273 11.6073 12.8257 10.08L15.3966 7.50909C16.9366 5.98182 19.4184 5.98182 20.9457 7.50909C21.6839 8.27273 22.0912 9.24 22.0912 10.2836Z" fill="#4C84FF"/>
</g>
<defs>
<clipPath id="clip0">
<rect width="28" height="28" fill="white"/>
</clipPath>
</defs>
</svg>
