<svg width="32" height="32" viewBox="0 0 32 32" fill="none" xmlns="http://www.w3.org/2000/svg">
<path d="M15.9999 16.9231V26.1539C15.9999 26.6435 15.8054 27.1131 15.4592 27.4593C15.113 27.8055 14.6434 28 14.1538 28C13.6641 28 13.1946 27.8055 12.8483 27.4593C12.5021 27.1131 12.3076 26.6435 12.3076 26.1539" stroke="#FFAB00" stroke-width="2" stroke-linecap="round" stroke-linejoin="round"/>
<path d="M28 16.9231C28 10.2954 22.6277 4.9231 16 4.9231C9.37231 4.9231 4 10.2954 4 16.9231C4.36365 16.5594 4.79538 16.2709 5.27052 16.0741C5.74567 15.8773 6.25493 15.776 6.76923 15.776C7.28353 15.776 7.79279 15.8773 8.26794 16.0741C8.74308 16.2709 9.17481 16.5594 9.53846 16.9231C10.3071 16.1546 11.3272 15.6891 12.4114 15.612C13.4957 15.535 14.5713 15.8516 15.441 16.5037L16 16.9231L16.559 16.5037C17.4287 15.8516 18.5043 15.535 19.5886 15.612C20.6728 15.6891 21.6929 16.1546 22.4615 16.9231V16.9231C22.8252 16.5594 23.2569 16.2709 23.7321 16.0741C24.2072 15.8773 24.7165 15.776 25.2308 15.776C25.7451 15.776 26.2543 15.8773 26.7295 16.0741C27.2046 16.2709 27.6363 16.5594 28 16.9231V16.9231Z" stroke="#FFAB00" stroke-width="2" stroke-linecap="round" stroke-linejoin="round"/>
<path d="M16 4.92308V4" stroke="#FFAB00" stroke-width="2" stroke-linecap="round" stroke-linejoin="round"/>
</svg>
