<svg width="21" height="20" viewBox="0 0 21 20" fill="none" xmlns="http://www.w3.org/2000/svg">
<path fill-rule="evenodd" clip-rule="evenodd" d="M20.79 6.00006C20.79 6.00006 20.58 4.60006 19.95 4.00006C19.11 3.20006 18.27 3.20006 17.85 3.20006C14.91 3.00006 10.5 3.00006 10.5 3.00006C10.5 3.00006 6.09 3.00006 3.15 3.20006C2.73 3.20006 1.89 3.20006 1.05 4.00006C0.42 4.60006 0.21 6.00006 0.21 6.00006C0.21 6.00006 0 7.60006 0 9.20006V10.7001C0 12.4001 0.21 14.0001 0.21 14.0001C0.21 14.0001 0.42 15.4001 1.05 16.0001C1.89 16.8001 2.94 16.8001 3.36 16.9001C5.04 17.0001 10.5 17.0001 10.5 17.0001C10.5 17.0001 14.91 17.0001 17.85 16.8001C18.27 16.8001 19.11 16.7001 19.95 16.0001C20.58 15.4001 20.79 14.0001 20.79 14.0001C20.79 14.0001 21 12.4001 21 10.8001V9.20006C21 7.60006 20.79 6.00006 20.79 6.00006ZM8.295 12.6001V7.00006L13.965 9.80006L8.295 12.6001Z" fill="white"/>
</svg>
