<svg viewBox="0 0 400 400" fill="none" xmlns="http://www.w3.org/2000/svg"><path fill="#F1F2F5" d="M0 0H400V400H0z"/><path d="M316.447 238.166L215 257.187V267.5c0 4.144-3.356 7.5-7.5 7.5h-15a7.498 7.498 0 0 1-7.5-7.5v-10.313L83.553 238.166A2.998 2.998 0 0 0 80 241.114V290c0 8.283 6.717 15 15 15h210c8.283 0 15-6.717 15-15v-48.886a2.998 2.998 0 0 0-3.553-2.948z" fill="#6B6C7E"/><path d="M305 140h-45v-15c0-16.57-13.43-30-30-30h-60c-16.57 0-30 13.43-30 30v15H95c-8.283 0-15 6.717-15 15v55.05c0 7.219 5.142 13.416 12.234 14.742L185 242.188V237.5c0-4.144 3.356-7.5 7.5-7.5h15c4.144 0 7.5 3.356 7.5 7.5v4.688l92.766-17.396A14.996 14.996 0 0 0 320 210.05V155c0-8.283-6.717-15-15-15zm-75 0h-60v-15h60v15z" fill="#6B6C7E"/></svg>