<svg width="23" height="22" viewBox="0 0 23 22" fill="none" xmlns="http://www.w3.org/2000/svg">
<g clip-path="url(#clip0)">
<rect width="23" height="22" fill="white"/>
<path fill-rule="evenodd" clip-rule="evenodd" d="M6.19549 3.15224C8.86763 -0.432307 16.2974 0.0664132 20.3056 3.52628C27.8657 10.0408 18.0571 26.0933 8.86763 19.6723C8.63944 19.5165 8.41136 19.3606 8.18324 19.1736C5.28302 16.7735 2.93674 13.376 5.41336 4.71073C5.57628 4.1185 5.86955 3.61979 6.19549 3.15224Z" fill="#1AA0E8"/>
<path fill-rule="evenodd" clip-rule="evenodd" d="M6.1954 3.15224C13.9184 0.128759 23.5967 7.39134 16.0691 15.4644C14.3095 17.3346 11.5722 18.9866 8.86748 19.6723C6.9123 20.171 4.95709 20.1398 3.42554 19.2983C-0.256774 17.3346 -1.16921 10.3525 1.66585 6.61211C2.96931 4.92892 4.53347 3.80681 6.1954 3.15224Z" fill="#0B63CE"/>
<path d="M16.0692 15.4644C23.5968 7.39134 13.9185 0.128759 6.19543 3.15224C5.86957 3.61979 5.57628 4.11851 5.41335 4.71074C2.93675 13.376 5.283 16.7735 8.18324 19.1736C8.41132 19.3606 8.63944 19.5165 8.86756 19.6723C11.5723 18.9866 14.3095 17.3346 16.0692 15.4644Z" fill="#134194"/>
</g>
<defs>
<clipPath id="clip0">
<rect width="23" height="22" fill="white"/>
</clipPath>
</defs>
</svg>
