<svg id="icon-user" data-name="icon-user" xmlns="http://www.w3.org/2000/svg" viewBox="0 0 512 512"><title>icon-user</title><path id="user" d="M494,257C494,125.8,387.2,19,256,19S18,125.8,18,257A237.15,237.15,0,0,0,95.3,432.3l-.2.2,7.7,6.5,1.5,1.2c4.1,3.4,8.4,6.6,12.7,9.8l4.2,3c4.6,3.2,9.4,6.2,14.2,9.1,1.1.6,2.1,1.2,3.2,1.8,5.3,3,10.7,5.9,16.3,8.5l1.2.6a234.44,234.44,0,0,0,57.6,18.2l1.6.3c6.3,1.1,12.6,1.9,19,2.5.8.1,1.6.1,2.3.2,6.4.5,12.8.9,19.4.9s12.9-.3,19.2-.8c.8-.1,1.6-.1,2.4-.2,6.4-.6,12.6-1.4,18.8-2.5l1.6-.3a235.54,235.54,0,0,0,56.7-17.8c.7-.3,1.3-.6,2-.9,5.3-2.5,10.6-5.2,15.7-8.1,1.3-.7,2.5-1.4,3.8-2.2,4.7-2.7,9.2-5.6,13.7-8.7,1.6-1.1,3.2-2.2,4.8-3.4,3.8-2.7,7.5-5.6,11.2-8.5.8-.6,1.7-1.2,2.5-1.9l7.9-6.6-.3-.2A237.35,237.35,0,0,0,494,257ZM35.3,257c0-121.7,99-220.7,220.7-220.7s220.7,99,220.7,220.7a220.4,220.4,0,0,1-74.3,165,55.89,55.89,0,0,0-7.7-4.6l-73.3-36.6a19.17,19.17,0,0,1-10.7-17.2V338c1.7-2.1,3.5-4.5,5.3-7.1a174.64,174.64,0,0,0,22.6-44.3,31.28,31.28,0,0,0,18-28.5V227.4a31.6,31.6,0,0,0-7.7-20.5V166.5c.5-4.5,2-29.8-16.3-50.8-16-18.2-41.8-27.4-76.7-27.4s-60.8,9.2-76.7,27.4c-18.3,20.9-16.7,46.3-16.3,50.8v40.4a31.6,31.6,0,0,0-7.7,20.5V258a31.57,31.57,0,0,0,11.6,24.4c7,27.5,21.4,48.2,26.8,55.3v25a19.13,19.13,0,0,1-10.1,16.9L115.2,417c-2.2,1.2-4.3,2.6-6.5,4.1A220.08,220.08,0,0,1,35.3,257ZM385.5,435.6c-3,2.2-6.1,4.3-9.2,6.4-1.4.9-2.9,1.9-4.3,2.8-4.1,2.5-8.2,4.9-12.5,7.2-.9.5-1.9,1-2.8,1.4a217.1,217.1,0,0,1-30.2,12.8c-.4.1-.7.3-1.1.4q-8.1,2.7-16.5,4.8h-.1c-5.6,1.4-11.3,2.5-17,3.5-.2,0-.3.1-.5.1-5.4.9-10.8,1.5-16.2,2-1,.1-1.9.1-2.9.2-5.4.4-10.8.7-16.2.7s-11-.3-16.4-.7c-.9-.1-1.9-.1-2.8-.2-5.5-.5-10.9-1.1-16.4-2-.2,0-.5-.1-.7-.1a218.48,218.48,0,0,1-33.7-8.4c-.3-.1-.7-.2-1-.3-5.4-1.9-10.8-3.9-16.1-6.2a.1.1,0,0,1-.1-.1c-5-2.2-9.9-4.5-14.8-7.1a17.37,17.37,0,0,1-1.9-1c-4.4-2.4-8.7-4.9-13-7.6-1.3-.8-2.5-1.6-3.8-2.4-3.9-2.6-7.8-5.2-11.6-8.1l-1.2-.9a5.58,5.58,0,0,0,.8-.5L191.7,395a36.47,36.47,0,0,0,19.1-32.1V331.7l-2-2.4c-.2-.2-18.9-23-26-53.8l-.8-3.4-3-1.9a14.3,14.3,0,0,1-6.7-12V227.5a14.22,14.22,0,0,1,4.8-10.6l2.9-2.6V166.1l-.1-1.1c0-.2-2.6-21,12.1-37.7,12.5-14.3,34-21.5,63.7-21.5s51,7.2,63.6,21.3c14.6,16.5,12.2,37.7,12.2,37.9l-.1,49.3,2.9,2.6a14.22,14.22,0,0,1,4.8,10.6V258a14.34,14.34,0,0,1-10.2,13.6l-4.3,1.3-1.4,4.3a159.37,159.37,0,0,1-21.6,43.5c-2.3,3.2-4.5,6-6.4,8.2l-2.1,2.4v32A36.36,36.36,0,0,0,313.3,396l73.3,36.6c.5.2.9.5,1.4.7A11,11,0,0,1,385.5,435.6Z"/></svg>