<svg id="icon-search" data-name="icon-search" xmlns="http://www.w3.org/2000/svg" viewBox="0 0 512 512"><title>icon-search</title><path id="search" d="M482.7,480.2l-133.6-139a188.22,188.22,0,0,0,55.2-133.3C404.3,103.7,319.5,19,215.4,19S26.5,103.7,26.5,207.9s84.7,188.9,188.9,188.9a187.67,187.67,0,0,0,120.4-43.5l134,139.3a9.18,9.18,0,0,0,6.5,2.8,8.77,8.77,0,0,0,6.2-2.5A9.09,9.09,0,0,0,482.7,480.2ZM215.4,378.8c-94.2,0-170.9-76.7-170.9-170.9S121.2,37,215.4,37s170.9,76.7,170.9,170.9S309.6,378.8,215.4,378.8Z"/></svg>