<svg id="icon-whislist" data-name="icon-whislist" xmlns="http://www.w3.org/2000/svg" viewBox="0 0 512 512"><title>icon-whislist</title><g id="whislist"><path d="M511.2,160.9C503.7,78.6,445.5,19,372.6,19c-48.5,0-93,26.1-118,68-24.8-42.4-67.4-68-115.2-68C66.6,19,8.3,78.6.9,160.9c-.6,3.6-3,22.8,4.4,53.9,10.6,45,35.1,85.9,70.9,118.3L254.5,495,435.9,333.1c35.8-32.4,60.3-73.3,70.9-118.3C514.2,183.7,511.7,164.5,511.2,160.9Zm-23.6,49.4c-9.7,41.1-32.1,78.5-64.9,108.2l-168.1,150L89.3,318.5C56.5,288.8,34,251.4,24.4,210.3c-7-29.5-4.1-46.2-4.1-46.3l.1-1c6.4-72,56.5-124.3,119-124.3,46.2,0,86.8,28.4,106.1,74l9.1,21.5,9.1-21.5c19-44.9,61.7-74,109-74C435.2,38.7,485.3,91,491.8,164,491.7,164.1,494.6,180.8,487.6,210.3Z"/></g></svg>