<svg width="40" height="40" viewBox="0 0 40 40" fill="none" xmlns="http://www.w3.org/2000/svg">
<rect width="40" height="40" rx="4" fill="#6B6C7E"/>
<path fill-rule="evenodd" clip-rule="evenodd" d="M14 12H26C27.0996 12 28 12.9 28 14V23.0375C28 24.1375 27.0996 25.0375 26 25.0375H14C12.9004 25.0375 12 24.1375 12 23.0375V14C12 12.9 12.9004 12 14 12ZM14 22H26V14H14V22Z" fill="white"/>
<path d="M22 26C23.3525 26 23.3213 28 22 28H18C17.3467 28 17.0156 27.5247 17.001 27.0387C17.001 27.0259 17 27.0129 17 27C17 26.9525 17.0029 26.9058 17.0098 26.86C17.0684 26.4109 17.4004 26 18 26H22Z" fill="white"/>
<path d="M17 20C15.8969 20 15 19.1031 15 18C15 16.8969 15.8969 16 17 16C18.1031 16 19 16.8969 19 18C19 19.1031 18.1031 20 17 20Z" fill="white"/>
<path d="M21 16H25V17H21V16Z" fill="white"/>
<path d="M21 19H24V20H21V19Z" fill="white"/>
</svg>
