<svg width="40" height="40" viewBox="0 0 40 40" fill="none" xmlns="http://www.w3.org/2000/svg">
<rect width="40" height="40" rx="4" fill="#6B6C7E"/>
<path d="M27 15H13C12.4502 15 12 14.55 12 14C12 13.45 12.4502 13 13 13H27C27.5498 13 28 13.45 28 14C28 14.55 27.5498 15 27 15Z" fill="white"/>
<path d="M18 22H22C22.5498 22 23 21.55 23 21C23 20.45 22.5498 20 22 20H18C17.4502 20 17 20.45 17 21C17 21.55 17.4502 22 18 22Z" fill="white"/>
<path fill-rule="evenodd" clip-rule="evenodd" d="M12 25.2219V16H28V25.2219C28 26.2031 27.2031 27 26.2217 27H13.7783C12.7969 27 12 26.2031 12 25.2219ZM14 18V25H26V18H14Z" fill="white"/>
</svg>
