<svg id="icon-bag" data-name="icon-bag" xmlns="http://www.w3.org/2000/svg" viewBox="0 0 512 512"><title>icon-bag</title><path d="M426.1,495H85.4a7.09,7.09,0,0,1-5.2-2.2,6.93,6.93,0,0,1-2-5.3L94.4,146.8a7.17,7.17,0,0,1,7.2-6.9H409.8a7.17,7.17,0,0,1,7.2,6.9l16.2,340.7a7.18,7.18,0,0,1-7.1,7.5ZM93,480.6H418.6L403,154.3H108.5Z"/><path d="M333.7,183.2a7.17,7.17,0,0,1-7.2-7.2V104.3a70.75,70.75,0,0,0-141.5,0V176a7.2,7.2,0,0,1-14.4,0V104.3a85.2,85.2,0,1,1,170.4,0V176A7.39,7.39,0,0,1,333.7,183.2Z"/></svg>